<svg width="1280" height="47" viewBox="0 0 1280 47" fill="none" xmlns="http://www.w3.org/2000/svg">
<path d="M188.833 3C188.833 4.47276 190.027 5.66667 191.5 5.66667C192.973 5.66667 194.167 4.47276 194.167 3C194.167 1.52724 192.973 0.333333 191.5 0.333333C190.027 0.333333 188.833 1.52724 188.833 3ZM214.986 25.5L214.647 25.8673L214.79 26H214.986V25.5ZM191.146 3.35346C196.42 8.63033 202.296 14.259 206.851 18.5673C209.129 20.7218 211.078 22.5465 212.457 23.8328C213.147 24.4759 213.694 24.9845 214.069 25.3322C214.256 25.5061 214.401 25.6398 214.498 25.7301C214.547 25.7753 214.584 25.8095 214.609 25.8325C214.621 25.844 214.631 25.8527 214.637 25.8585C214.64 25.8614 214.643 25.8636 214.644 25.8651C214.645 25.8658 214.645 25.8664 214.646 25.8668C214.646 25.867 214.646 25.8671 214.646 25.8672C214.646 25.8673 214.647 25.8673 214.986 25.5C215.325 25.1327 215.325 25.1326 215.325 25.1325C215.325 25.1324 215.325 25.1323 215.324 25.1321C215.324 25.1318 215.323 25.1312 215.323 25.1305C215.321 25.1291 215.319 25.1269 215.316 25.124C215.309 25.1183 215.3 25.1097 215.288 25.0982C215.263 25.0753 215.226 25.0412 215.177 24.9962C215.08 24.9062 214.936 24.7727 214.749 24.5991C214.375 24.2519 213.828 23.744 213.139 23.1015C211.761 21.8165 209.814 19.9933 207.538 17.8408C202.986 13.5352 197.118 7.91383 191.854 2.64654L191.146 3.35346ZM214.986 26H1280V25H214.986V26Z" fill="white"/>
<path opacity="0.6" fill-rule="evenodd" clip-rule="evenodd" d="M151.5 46.5H152H186.5H225.5L196.5 17.5H186.5H152H122.5L151.5 46.5Z" fill="#FABF28"/>
<path opacity="0.6" fill-rule="evenodd" clip-rule="evenodd" d="M-10 46.5H61H65H134.5L105.5 17.5H65H61H-39L-10 46.5Z" fill="white"/>
<path d="M147.67 6.5L148.025 6.14775L147.878 6H147.67V6.5ZM181.421 40.5L181.067 40.8523L181.213 41H181.421V40.5ZM610.333 40.5C610.333 41.9728 611.527 43.1667 613 43.1667C614.473 43.1667 615.667 41.9728 615.667 40.5C615.667 39.0272 614.473 37.8333 613 37.8333C611.527 37.8333 610.333 39.0272 610.333 40.5ZM-5 7H147.67V6H-5V7ZM147.315 6.85225L181.067 40.8523L181.776 40.1477L148.025 6.14775L147.315 6.85225ZM181.421 41H613V40H181.421V41Z" fill="white"/>
</svg>
