<svg width="1147" height="1369" viewBox="0 0 1147 1369" fill="none" xmlns="http://www.w3.org/2000/svg">
<g opacity="0.2">
<mask id="mask0_1119_15773" style="mask-type:alpha" maskUnits="userSpaceOnUse" x="887" y="1133" width="210" height="210">
<rect x="887" y="1133" width="210" height="210" fill="#D9D9D9"/>
</mask>
<g mask="url(#mask0_1119_15773)">
<rect x="1011.75" y="991.645" width="31.7188" height="368.594" transform="rotate(45 1011.75 991.645)" fill="white"/>
<rect x="1045.78" y="1025.67" width="31.7188" height="368.594" transform="rotate(45 1045.78 1025.67)" fill="white"/>
<rect x="1079.81" y="1059.7" width="31.7188" height="368.594" transform="rotate(45 1079.81 1059.7)" fill="white"/>
<rect x="1113.84" y="1093.73" width="31.7188" height="368.594" transform="rotate(45 1113.84 1093.73)" fill="white"/>
<rect x="1147.87" y="1127.76" width="31.7188" height="368.594" transform="rotate(45 1147.87 1127.76)" fill="white"/>
<rect x="1181.9" y="1161.79" width="31.7188" height="368.594" transform="rotate(45 1181.9 1161.79)" fill="white"/>
<rect x="1215.93" y="1195.82" width="31.7188" height="368.594" transform="rotate(45 1215.93 1195.82)" fill="white"/>
</g>
</g>
<g opacity="0.2">
<rect x="1137" y="3.66675" width="10" height="2.66667" fill="white"/>
<rect x="1143.33" width="10" height="2.66667" transform="rotate(90 1143.33 0)" fill="white"/>
<rect x="1137" y="23.6667" width="10" height="2.66667" fill="white"/>
<rect x="1143.33" y="20" width="10" height="2.66667" transform="rotate(90 1143.33 20)" fill="white"/>
<rect x="1141" y="42" width="2" height="1301" fill="white"/>
</g>
<g opacity="0.2">
<rect x="1122" y="54" width="7.66667" height="3.66667" fill="white"/>
<rect x="1122" y="66.8333" width="7.66667" height="3.66667" fill="white"/>
<rect x="1122" y="72.3333" width="7.66667" height="7.33333" fill="white"/>
<rect x="1122" y="81.5" width="7.66667" height="1.83333" fill="white"/>
<rect x="1122" y="85.1667" width="7.66667" height="1.83333" fill="white"/>
<rect x="1122" y="59.5" width="7.66667" height="1.83333" fill="white"/>
<rect x="1122" y="63.1667" width="7.66667" height="1.83333" fill="white"/>
</g>
<g opacity="0.3">
<path d="M1013.47 1316.5L964.751 1368.28L989.126 1368.28L1037.84 1316.5L1013.47 1316.5Z" stroke="white"/>
<path d="M945.601 1316.5L896.884 1368.28L921.259 1368.28L969.976 1316.5L945.601 1316.5Z" stroke="white"/>
<path d="M877.738 1316.5L829.021 1368.28L853.396 1368.28L902.113 1316.5L877.738 1316.5Z" stroke="white"/>
<path d="M809.873 1316.5L761.157 1368.28L785.532 1368.28L834.249 1316.5L809.873 1316.5Z" stroke="white"/>
</g>
<rect y="1275" width="8" height="8" fill="white" fill-opacity="0.2"/>
<rect y="1295" width="8" height="8" fill="white" fill-opacity="0.2"/>
<rect y="1315" width="8" height="8" fill="white" fill-opacity="0.2"/>
<rect y="1335" width="8" height="8" fill="white" fill-opacity="0.2"/>
<rect x="2" width="2" height="1236" fill="white" fill-opacity="0.2"/>
<g opacity="0.2">
<path d="M149.857 29L164.003 29L191.285 5.52915e-06L177.139 4.29244e-06L149.857 29Z" fill="white"/>
<path d="M112.57 29L126.716 29L153.998 5.52915e-06L139.852 4.29244e-06L112.57 29Z" fill="white"/>
<path d="M75.2852 29L89.4315 29L116.714 5.52915e-06L102.567 4.29244e-06L75.2852 29Z" fill="white"/>
<path d="M38 29L52.1463 29L79.4286 5.52915e-06L65.2822 4.29244e-06L38 29Z" fill="white"/>
</g>
</svg>
