<svg width="390" height="34" viewBox="0 0 390 34" fill="none" xmlns="http://www.w3.org/2000/svg">
<path d="M113.553 3C113.553 4.47276 114.747 5.66667 116.22 5.66667C117.693 5.66667 118.887 4.47276 118.887 3C118.887 1.52724 117.693 0.333333 116.22 0.333333C114.747 0.333333 113.553 1.52724 113.553 3ZM132.851 18.9325L132.511 19.2999L132.655 19.4325H132.851V18.9325ZM115.866 3.35346C119.602 7.09147 123.764 11.0783 126.99 14.1295C128.604 15.6553 129.984 16.9477 130.96 17.8587C131.449 18.3142 131.836 18.6744 132.102 18.9207C132.235 19.0439 132.337 19.1386 132.406 19.2026C132.441 19.2346 132.467 19.2589 132.485 19.2752C132.493 19.2833 132.5 19.2895 132.505 19.2936C132.507 19.2957 132.508 19.2972 132.51 19.2983C132.51 19.2988 132.511 19.2992 132.511 19.2995C132.511 19.2996 132.511 19.2997 132.511 19.2998C132.511 19.2998 132.511 19.2999 132.851 18.9325C133.19 18.5652 133.19 18.5652 133.19 18.5651C133.19 18.565 133.189 18.5649 133.189 18.5648C133.189 18.5646 133.189 18.5642 133.188 18.5637C133.187 18.5627 133.185 18.5611 133.183 18.5591C133.179 18.555 133.172 18.549 133.163 18.5409C133.146 18.5247 133.12 18.5005 133.085 18.4687C133.017 18.405 132.915 18.3105 132.782 18.1876C132.517 17.9418 132.13 17.5822 131.642 17.1274C130.667 16.2177 129.289 14.9269 127.677 13.4029C124.454 10.3545 120.3 6.37497 116.574 2.64654L115.866 3.35346ZM132.851 19.4325L424 19.4325V18.4325L132.851 18.4325V19.4325Z" fill="white"/>
<path opacity="0.6" fill-rule="evenodd" clip-rule="evenodd" d="M119.761 13.2676H88.2495V13.2676H67.3602L87.8955 33.8028H88.2495H112.679H140.296L119.761 13.2676Z" fill="#FABF28"/>
<path opacity="0.6" d="M6.10352e-05 13.2676H55.3223L75.8576 33.8028H6.10352e-05V13.2676Z" fill="white"/>
<path d="M85.1836 5.47852L85.5384 5.12626L85.3918 4.97852H85.1836V5.47852ZM109.083 29.5543L108.728 29.9066L108.875 30.0543H109.083V29.5543ZM412.023 29.5543C412.023 31.0271 413.217 32.221 414.689 32.221C416.162 32.221 417.356 31.0271 417.356 29.5543C417.356 28.0816 416.162 26.8877 414.689 26.8877C413.217 26.8877 412.023 28.0816 412.023 29.5543ZM0 5.97852H85.1836V4.97852H0V5.97852ZM84.8287 5.83077L108.728 29.9066L109.438 29.2021L85.5384 5.12626L84.8287 5.83077ZM109.083 30.0543H414.689V29.0543H109.083V30.0543Z" fill="white"/>
</svg>
