<svg width="1280" height="34" viewBox="0 0 1280 34" fill="none" xmlns="http://www.w3.org/2000/svg">
<g opacity="0.6">
<path fill-rule="evenodd" clip-rule="evenodd" d="M954.5 29.0001L920 29.0002L920 29.0001L910 29.0001L881 0.00013595L946.505 0.000141676L954.5 0.000142375L1020.5 -0.000107439L1049.5 28.9999L954.5 29.0001Z" fill="#FABF28"/>
<path fill-rule="evenodd" clip-rule="evenodd" d="M1213.5 29.0001L1179 29.0002L1179 29.0001L1169 29.0001L1140 0.00013595L1205.51 0.000141676L1213.5 0.000142375L1279.5 -0.000107439L1308.5 28.9999L1213.5 29.0001Z" fill="#FABF28"/>
<path fill-rule="evenodd" clip-rule="evenodd" d="M1119.5 0.000241605L1114.5 0.000237354L1101 0.000236173L1041 0.000230928L1070 29.0002L1101 29.0002L1148.5 29.0002L1119.5 0.000241605Z" fill="white"/>
</g>
<path d="M935.667 28.9999C935.667 27.5271 934.473 26.3332 933 26.3332C931.527 26.3332 930.333 27.5271 930.333 28.9999C930.333 30.4726 931.527 31.6666 933 31.6666C934.473 31.6666 935.667 30.4726 935.667 28.9999ZM917.78 14.0001L918.131 13.6439L917.985 13.5001L917.78 13.5001L917.78 14.0001ZM362.252 14.0001L362.252 13.5001L362.047 13.5001L361.901 13.6436L362.252 14.0001ZM349.667 28.9999C349.667 27.5272 348.473 26.3333 347 26.3333C345.527 26.3333 344.333 27.5272 344.333 28.9999C344.333 30.4727 345.527 31.6666 347 31.6666C348.473 31.6666 349.667 30.4727 349.667 28.9999ZM933.351 28.6438L918.131 13.6439L917.429 14.3562L932.649 29.356L933.351 28.6438ZM917.78 13.5001L362.252 13.5001L362.252 14.5001L917.78 14.5001L917.78 13.5001ZM361.901 13.6436L346.649 28.6435L347.351 29.3564L362.602 14.3566L361.901 13.6436Z" fill="white"/>
<path d="M350.5 6L324.034 33H-58" stroke="white"/>
<path d="M929 6L955.466 33H1337.5" stroke="white"/>
<path d="M484.25 25.4952L473 31.9904L473 19L484.25 25.4952Z" fill="white" fill-opacity="0.2"/>
<path d="M463.25 25.4952L452 31.9904L452 19L463.25 25.4952Z" fill="white" fill-opacity="0.2"/>
<path d="M442.25 25.4952L431 31.9904L431 19L442.25 25.4952Z" fill="white" fill-opacity="0.2"/>
<path d="M421.25 25.4952L410 31.9904L410 19L421.25 25.4952Z" fill="white" fill-opacity="0.2"/>
<path d="M796 25.4953L807.25 19.0001L807.25 31.9905L796 25.4953Z" fill="white" fill-opacity="0.2"/>
<path d="M817 25.4953L828.25 19.0001L828.25 31.9905L817 25.4953Z" fill="white" fill-opacity="0.2"/>
<path d="M838 25.4953L849.25 19.0001L849.25 31.9905L838 25.4953Z" fill="white" fill-opacity="0.2"/>
<path d="M859 25.4953L870.25 19.0001L870.25 31.9905L859 25.4953Z" fill="white" fill-opacity="0.2"/>
</svg>
