<svg width="390" height="651" viewBox="0 0 390 651" fill="none" xmlns="http://www.w3.org/2000/svg">
<g clip-path="url(#clip0_1119_23566)">
<rect width="390" height="651" fill="white"/>
<path d="M0 0H390V651H0V0Z" fill="#181921"/>
<path d="M113.553 604.697C113.553 606.17 114.747 607.364 116.22 607.364C117.693 607.364 118.887 606.17 118.887 604.697C118.887 603.225 117.693 602.031 116.22 602.031C114.747 602.031 113.553 603.225 113.553 604.697ZM132.85 620.63L132.511 620.997L132.655 621.13H132.85V620.63ZM115.866 605.051C119.602 608.789 123.764 612.776 126.99 615.827C128.603 617.353 129.983 618.645 130.96 619.556C131.449 620.011 131.836 620.372 132.102 620.618C132.235 620.741 132.337 620.836 132.406 620.9C132.441 620.932 132.467 620.956 132.484 620.972C132.493 620.981 132.5 620.987 132.504 620.991C132.507 620.993 132.508 620.994 132.509 620.996C132.51 620.996 132.51 620.996 132.511 620.997C132.511 620.997 132.511 620.997 132.511 620.997C132.511 620.997 132.511 620.997 132.85 620.63C133.19 620.262 133.19 620.262 133.189 620.262C133.189 620.262 133.189 620.262 133.189 620.262C133.189 620.262 133.189 620.261 133.188 620.261C133.187 620.26 133.185 620.258 133.183 620.256C133.179 620.252 133.172 620.246 133.163 620.238C133.146 620.222 133.12 620.198 133.085 620.166C133.016 620.102 132.914 620.008 132.782 619.885C132.517 619.639 132.13 619.28 131.642 618.825C130.667 617.915 129.289 616.624 127.677 615.1C124.454 612.052 120.3 608.072 116.573 604.344L115.866 605.051ZM132.85 621.13H887V620.13H132.85V621.13Z" fill="white"/>
<path opacity="0.6" fill-rule="evenodd" clip-rule="evenodd" d="M119.76 614.965H88.2494V614.965H67.3601L87.8954 635.5H88.2494H112.679H140.296L119.76 614.965Z" fill="#FABF28"/>
<path opacity="0.6" d="M-0.00012207 614.965H55.3222L75.8574 635.5H-0.00012207V614.965Z" fill="white"/>
<path d="M85.1835 607.176L85.5383 606.824L85.3916 606.676H85.1835V607.176ZM109.083 631.252L108.728 631.604L108.875 631.752H109.083V631.252ZM412.022 631.252C412.022 632.724 413.216 633.918 414.689 633.918C416.162 633.918 417.356 632.724 417.356 631.252C417.356 629.779 416.162 628.585 414.689 628.585C413.216 628.585 412.022 629.779 412.022 631.252ZM-0.00012207 607.676H85.1835V606.676H-0.00012207V607.676ZM84.8286 607.528L108.728 631.604L109.438 630.899L85.5383 606.824L84.8286 607.528ZM109.083 631.752H414.689V630.752H109.083V631.752Z" fill="white"/>
<g opacity="0.6">
<path fill-rule="evenodd" clip-rule="evenodd" d="M317.581 9.00049L320.325 9.00048L342.792 31.4677L289.09 31.468L289.09 31.4678L283.105 31.4677L260.638 9.00048L317.581 9.00049Z" fill="#FABF28"/>
<path fill-rule="evenodd" clip-rule="evenodd" d="M351.344 31.4678L385.82 31.4678L412.161 31.4678L389.694 9.0005L375.361 9.0005L328.877 9.0005L351.344 31.4678Z" fill="white"/>
</g>
<path d="M299.431 34.9421C299.431 33.4694 298.237 32.2755 296.764 32.2755C295.291 32.2755 294.097 33.4694 294.097 34.9421C294.097 36.4149 295.291 37.6088 296.764 37.6088C298.237 37.6088 299.431 36.4149 299.431 34.9421ZM281.325 19.7264L281.676 19.3703L281.53 19.2264L281.325 19.2264L281.325 19.7264ZM109.103 19.7264L109.103 19.2264L108.899 19.2264L108.753 19.3699L109.103 19.7264ZM96.2989 34.9421C96.2989 33.4693 95.105 32.2754 93.6322 32.2754C92.1595 32.2754 90.9656 33.4693 90.9656 34.9421C90.9656 36.4148 92.1595 37.6088 93.6322 37.6088C95.105 37.6088 96.2989 36.4148 96.2989 34.9421ZM297.115 34.586L281.676 19.3703L280.974 20.0826L296.413 35.2983L297.115 34.586ZM281.325 19.2264L109.103 19.2264L109.103 20.2264L281.325 20.2264L281.325 19.2264ZM108.753 19.3699L93.2816 34.5856L93.9828 35.2986L109.454 20.0829L108.753 19.3699Z" fill="white"/>
<path d="M93.3787 11.6118L66.5319 39.0004H-321" stroke="white"/>
<path d="M296.764 11.6118L323.61 39.0004H711.142" stroke="white"/>
<g opacity="0.2">
<path d="M172.73 28.8561L165.702 32.9137L165.702 24.7986L172.73 28.8561Z" fill="#181921"/>
<path d="M159.612 28.8561L152.584 32.9137L152.584 24.7986L159.612 28.8561Z" fill="#181921"/>
<path d="M146.493 28.8561L139.465 32.9137L139.465 24.7986L146.493 28.8561Z" fill="#181921"/>
<path d="M133.374 28.8561L126.347 32.9137L126.347 24.7986L133.374 28.8561Z" fill="#181921"/>
<path d="M221.421 28.8558L228.448 24.7983L228.448 32.9133L221.421 28.8558Z" fill="#181921"/>
<path d="M234.539 28.8558L241.567 24.7983L241.567 32.9133L234.539 28.8558Z" fill="#181921"/>
<path d="M247.658 28.8558L254.686 24.7983L254.686 32.9133L247.658 28.8558Z" fill="#181921"/>
<path d="M260.777 28.8558L267.805 24.7983L267.805 32.9133L260.777 28.8558Z" fill="#181921"/>
</g>
<g opacity="0.2">
<rect x="314" y="181.667" width="10" height="2.66667" fill="white"/>
<rect x="320.333" y="178" width="10" height="2.66667" transform="rotate(90 320.333 178)" fill="white"/>
<rect x="314" y="201.667" width="10" height="2.66667" fill="white"/>
<rect x="320.333" y="198" width="10" height="2.66667" transform="rotate(90 320.333 198)" fill="white"/>
<rect x="318" y="220" width="2" height="152" fill="white"/>
</g>
<g opacity="0.2">
<mask id="mask0_1119_23566" style="mask-type:alpha" maskUnits="userSpaceOnUse" x="175" y="389" width="196" height="196">
<rect x="175" y="389" width="196" height="196" fill="#D9D9D9"/>
</mask>
<g mask="url(#mask0_1119_23566)">
<rect x="291.432" y="257.069" width="29.6042" height="344.021" transform="rotate(45 291.432 257.069)" fill="white"/>
<rect x="323.193" y="288.83" width="29.6042" height="344.021" transform="rotate(45 323.193 288.83)" fill="white"/>
<rect x="354.954" y="320.59" width="29.6042" height="344.021" transform="rotate(45 354.954 320.59)" fill="white"/>
<rect x="386.716" y="352.352" width="29.6042" height="344.021" transform="rotate(45 386.716 352.352)" fill="white"/>
<rect x="418.476" y="384.112" width="29.6042" height="344.021" transform="rotate(45 418.476 384.112)" fill="white"/>
<rect x="450.237" y="415.874" width="29.6042" height="344.021" transform="rotate(45 450.237 415.874)" fill="white"/>
<rect x="481.997" y="447.634" width="29.6042" height="344.021" transform="rotate(45 481.997 447.634)" fill="white"/>
</g>
</g>
<g opacity="0.2">
<rect x="130" y="585" width="14.6667" height="3.66667" transform="rotate(-90 130 585)" fill="white"/>
<rect x="142.833" y="585" width="14.6667" height="3.66667" transform="rotate(-90 142.833 585)" fill="white"/>
<rect x="148.333" y="585" width="14.6667" height="7.33333" transform="rotate(-90 148.333 585)" fill="white"/>
<rect x="157.5" y="585" width="14.6667" height="1.83333" transform="rotate(-90 157.5 585)" fill="white"/>
<rect x="161.167" y="585" width="14.6667" height="1.83333" transform="rotate(-90 161.167 585)" fill="white"/>
<rect x="135.5" y="585" width="14.6667" height="1.83333" transform="rotate(-90 135.5 585)" fill="white"/>
<rect x="139.167" y="585" width="14.6667" height="1.83333" transform="rotate(-90 139.167 585)" fill="white"/>
</g>
<g opacity="0.2">
<rect x="17" y="425" width="8" height="8" fill="white"/>
<rect x="17" y="445" width="8" height="8" fill="white"/>
<rect x="17" y="465" width="8" height="8" fill="white"/>
<rect x="17" y="485" width="8" height="8" fill="white"/>
<rect x="19" y="62" width="2" height="324" fill="white"/>
<rect x="27" y="62" width="8" height="2" fill="white"/>
<rect x="27" y="69" width="8" height="2" fill="white"/>
<rect x="27" y="72" width="8" height="4" fill="white"/>
<rect x="27" y="77" width="8" height="1" fill="white"/>
<rect x="27" y="79" width="8" height="1" fill="white"/>
<rect x="27" y="65" width="8" height="1" fill="white"/>
<rect x="27" y="67" width="8" height="1" fill="white"/>
</g>
</g>
<defs>
<clipPath id="clip0_1119_23566">
<rect width="390" height="651" fill="white"/>
</clipPath>
</defs>
</svg>
