<svg width="390" height="31" viewBox="0 0 390 31" fill="none" xmlns="http://www.w3.org/2000/svg">
<g opacity="0.6">
<path fill-rule="evenodd" clip-rule="evenodd" d="M317.581 -2.96657e-07L320.325 -5.77885e-06L342.792 22.4673L289.09 22.4675L289.09 22.4673L283.106 22.4673L260.638 -5.27476e-06L317.581 -2.96657e-07Z" fill="#FABF28"/>
<path fill-rule="evenodd" clip-rule="evenodd" d="M351.344 22.4673L385.82 22.4673L412.161 22.4673L389.694 1.13873e-05L375.361 8.22695e-06L328.877 1.36999e-05L351.344 22.4673Z" fill="white"/>
</g>
<path d="M299.431 25.9417C299.431 24.4689 298.237 23.275 296.764 23.275C295.291 23.275 294.097 24.4689 294.097 25.9417C294.097 27.4144 295.291 28.6083 296.764 28.6083C298.237 28.6083 299.431 27.4144 299.431 25.9417ZM281.325 10.7259L281.676 10.3698L281.53 10.2259L281.325 10.2259L281.325 10.7259ZM109.103 10.7259L109.103 10.2259L108.899 10.2259L108.753 10.3694L109.103 10.7259ZM96.299 25.9416C96.299 24.4688 95.1051 23.2749 93.6324 23.2749C92.1596 23.2749 90.9657 24.4688 90.9657 25.9416C90.9657 27.4144 92.1596 28.6083 93.6324 28.6083C95.1051 28.6083 96.299 27.4144 96.299 25.9416ZM297.115 25.5855L281.676 10.3698L280.974 11.0821L296.413 26.2978L297.115 25.5855ZM281.325 10.2259L109.103 10.2259L109.103 11.2259L281.325 11.2259L281.325 10.2259ZM108.753 10.3694L93.2818 25.5851L93.983 26.2981L109.454 11.0824L108.753 10.3694Z" fill="white"/>
<path d="M93.3788 2.61133L66.532 29.9999H-321" stroke="white"/>
<path d="M296.764 2.61133L323.611 29.9999H711.143" stroke="white"/>
<g opacity="0.2">
<path d="M172.73 19.8556L165.702 23.9132L165.702 15.7981L172.73 19.8556Z" fill="white"/>
<path d="M159.612 19.8556L152.584 23.9132L152.584 15.7981L159.612 19.8556Z" fill="white"/>
<path d="M146.493 19.8556L139.465 23.9132L139.465 15.7981L146.493 19.8556Z" fill="white"/>
<path d="M133.374 19.8556L126.347 23.9132L126.347 15.7981L133.374 19.8556Z" fill="white"/>
<path d="M221.421 19.8553L228.449 15.7978L228.449 23.9128L221.421 19.8553Z" fill="white"/>
<path d="M234.539 19.8553L241.567 15.7978L241.567 23.9128L234.539 19.8553Z" fill="white"/>
<path d="M247.658 19.8553L254.686 15.7978L254.686 23.9128L247.658 19.8553Z" fill="white"/>
<path d="M260.777 19.8553L267.805 15.7978L267.805 23.9128L260.777 19.8553Z" fill="white"/>
</g>
</svg>
