<svg width="202" height="29" viewBox="0 0 202 29" fill="none" xmlns="http://www.w3.org/2000/svg">
<path d="M55.4627 28.8145L11.0066 28.8144L7.5279 25.8049L58.9414 25.8049L55.4627 28.8145Z" fill="white"/>
<path fill-rule="evenodd" clip-rule="evenodd" d="M201.662 26.8279H55.6357V25.8345H201.662V26.8279Z" fill="white"/>
<path fill-rule="evenodd" clip-rule="evenodd" d="M41.7285 1.00007L195.375 1L201.422 7.04752V24.4786L65.8319 24.4787L47.2994 24.4787L41.7285 24.4787L7.04751 24.4786L1 18.4311L1 1.00005L41.7285 1.00007Z" fill="white"/>
<path d="M195.375 1L195.728 0.646446L195.582 0.5L195.375 0.5V1ZM41.7285 1.00007V1.50007V1.00007ZM201.422 7.04752H201.922V6.84042L201.776 6.69397L201.422 7.04752ZM201.422 24.4786V24.9786H201.922V24.4786H201.422ZM65.8319 24.4787V24.9787V24.4787ZM47.2994 24.4787V23.9787V24.4787ZM41.7285 24.4787L41.7285 24.9787H41.7285V24.4787ZM7.04751 24.4786L6.69396 24.8321L6.8404 24.9786H7.04751L7.04751 24.4786ZM1 18.4311H0.5V18.6382L0.646447 18.7846L1 18.4311ZM1 1.00005L1 0.500047L0.500002 0.500046L0.500002 1.00005L1 1.00005ZM195.375 0.5L41.7285 0.500067V1.50007L195.375 1.5V0.5ZM201.776 6.69397L195.728 0.646446L195.021 1.35355L201.069 7.40108L201.776 6.69397ZM201.922 24.4786V7.04752H200.922V24.4786H201.922ZM65.8319 24.9787L201.422 24.9786V23.9786L65.8319 23.9787V24.9787ZM47.2994 24.9787L65.8319 24.9787V23.9787L47.2994 23.9787V24.9787ZM41.7285 24.9787L47.2994 24.9787V23.9787L41.7285 23.9787V24.9787ZM7.04751 24.9786L41.7285 24.9787L41.7285 23.9787L7.04751 23.9786L7.04751 24.9786ZM0.646447 18.7846L6.69396 24.8321L7.40106 24.125L1.35355 18.0775L0.646447 18.7846ZM0.500002 1.00005L0.5 18.4311H1.5L1.5 1.00005L0.500002 1.00005ZM41.7285 0.500067L1 0.500047L1 1.50005L41.7285 1.50007V0.500067Z" fill="white"/>
</svg>
