<svg width="569" height="53" viewBox="0 0 569 53" fill="none" xmlns="http://www.w3.org/2000/svg">
<path d="M102.964 52.0447L19.9926 52.0447L13.5 46.4277L109.456 46.4277L102.964 52.0447Z" fill="#181921"/>
<path fill-rule="evenodd" clip-rule="evenodd" d="M469.074 44.82L12.2869 44.8197L1 33.5328L1 1L469.074 1.00029H556.713L568 12.2872V44.82L494.303 44.82L469.074 44.82Z" fill="#181921"/>
<line x1="101.918" y1="46.9751" x2="568" y2="46.9751" stroke="#181921"/>
<path fill-rule="evenodd" clip-rule="evenodd" d="M469.074 44.82L12.2869 44.8197L1 33.5328L1 1L469.074 1.00029H556.713L568 12.2872V44.82L494.303 44.82L469.074 44.82Z" fill="white"/>
<path d="M12.2869 44.8197L11.9333 45.1732L12.0798 45.3197H12.2869V44.8197ZM469.074 44.82V44.32V44.82ZM1 33.5328H0.5V33.7399L0.646446 33.8863L1 33.5328ZM1 1L1 0.5L0.500004 0.5L0.500004 1L1 1ZM469.074 1.00029V1.50029V1.00029ZM556.713 1.00029L557.067 0.646737L556.92 0.500291H556.713V1.00029ZM568 12.2872H568.5V12.0801L568.354 11.9336L568 12.2872ZM568 44.82V45.32H568.5V44.82H568ZM494.303 44.82V45.32V44.82ZM12.2869 45.3197L469.074 45.32V44.32L12.2869 44.3197V45.3197ZM0.646446 33.8863L11.9333 45.1732L12.6404 44.4661L1.35355 33.1792L0.646446 33.8863ZM0.500004 1L0.5 33.5328H1.5L1.5 1L0.500004 1ZM469.074 0.500291L1 0.5L1 1.5L469.074 1.50029V0.500291ZM556.713 0.500291H469.074V1.50029H556.713V0.500291ZM568.354 11.9336L557.067 0.646737L556.36 1.35385L567.646 12.6407L568.354 11.9336ZM568.5 44.82V12.2872H567.5V44.82H568.5ZM494.303 45.32L568 45.32V44.32L494.303 44.32V45.32ZM469.074 45.32L494.303 45.32V44.32L469.074 44.32V45.32Z" fill="#181921"/>
</svg>
