<svg width="109" height="89" viewBox="0 0 109 89" fill="none" xmlns="http://www.w3.org/2000/svg">
<path d="M19 89L0 70V0H91.5L109 17.5V45.5L99.5 55V89H19Z" fill="#181921"/>
<path d="M109 89H102.5V56.5L109 50V89Z" fill="#181921"/>
<path d="M4 8.45453L6.60754 8.45453L11.6364 2.99998L9.02882 2.99998L4 8.45453Z" fill="#EDEDEE"/>
<path d="M9.45459 8.45453L12.0621 8.45453L17.091 2.99998L14.4834 2.99998L9.45459 8.45453Z" fill="#EDEDEE"/>
<path d="M14.9091 8.45453L17.5166 8.45453L22.5454 2.99998L19.9379 2.99998L14.9091 8.45453Z" fill="#EDEDEE"/>
<path d="M20.3636 8.45453L22.9712 8.45453L28 2.99998L25.3925 2.99998L20.3636 8.45453Z" fill="#EDEDEE"/>
<path d="M25.8181 8.45453L28.4257 8.45453L33.4545 2.99998L30.8469 2.99998L25.8181 8.45453Z" fill="#EDEDEE"/>
</svg>
