<svg width="615" height="123" viewBox="0 0 615 123" fill="none" xmlns="http://www.w3.org/2000/svg">
<path d="M11.1958 78.9941L11.1958 73.5327L-0.000167148 62.9999L-0.000167386 68.4613L11.1958 78.9941Z" fill="#FABF28"/>
<path d="M11.1958 93.3894L11.1958 87.928L-0.000167148 77.3952L-0.000167386 82.8566L11.1958 93.3894Z" fill="#FABF28"/>
<path d="M11.1958 107.784L11.1958 102.322L-0.000167148 91.7895L-0.000167386 97.2509L11.1958 107.784Z" fill="#FABF28"/>
<path d="M11.1958 122.179L11.1958 116.717L-0.000167148 106.184L-0.000167386 111.646L11.1958 122.179Z" fill="#FABF28"/>
<path fill-rule="evenodd" clip-rule="evenodd" d="M71.8791 0H0V10.1485H9.64131e-05V53.2738L10.1486 62.5825V10.1485H81.1878L71.8791 0Z" fill="#FABF28"/>
<path d="M506.419 4L606.359 4.00002L614.179 10.7657L498.599 10.7657L506.419 4Z" fill="#FABF28"/>
<line x1="102.363" y1="5.30591" x2="476.628" y2="5.30597" stroke="#FABF28" stroke-width="2"/>
<circle cx="50.7426" cy="14.6586" r="1.12761" fill="#FABF28"/>
<circle cx="55.2529" cy="14.6586" r="1.12761" fill="#FABF28"/>
<circle cx="59.7634" cy="14.6586" r="1.12761" fill="#FABF28"/>
<circle cx="64.2736" cy="14.6586" r="1.12761" fill="#FABF28"/>
</svg>
