<svg width="603" height="50" viewBox="0 0 603 50" fill="none" xmlns="http://www.w3.org/2000/svg">
<path fill-rule="evenodd" clip-rule="evenodd" d="M47.2535 1H56.7564L95.4888 39.7324H505.793L544.525 1H553.254V2H544.939L506.207 40.7324H95.0746L94.9282 40.5859L95.2817 40.2324C94.9282 40.5859 94.9282 40.586 94.9282 40.5859L94.927 40.5847L56.3422 2H47.2535V1Z" fill="#181921"/>
<path d="M509.183 45.1269H476.648L472 49.0001H523.901L567.282 5.61981H597.493L602.141 0.971924H553.338L509.183 45.1269Z" fill="#181921"/>
<path d="M92.9578 45.1549H125.493L130.141 49.0282H78.2395L34.8592 5.64789H4.64792L3.05176e-05 1H48.8028L92.9578 45.1549Z" fill="#181921"/>
<path d="M574.254 9.49316L534.746 49.0002H555.662L595.169 9.49316H574.254Z" fill="#FABF28"/>
<path d="M27.1127 9.49316L66.6198 49.0002H45.7043L6.19722 9.49316H27.1127Z" fill="#FABF28"/>
</svg>
