<svg width="615" height="121" viewBox="0 0 615 121" fill="none" xmlns="http://www.w3.org/2000/svg">
<path fill-rule="evenodd" clip-rule="evenodd" d="M614.364 110.851L614.364 67.7264L604.215 58.4177L604.215 110.851L533.176 110.851L542.485 121L604.215 121L604.215 121L614.364 121L614.364 121L614.364 121L614.364 110.851L614.364 110.851Z" fill="#FABF28"/>
<path d="M614.364 16.9456L614.364 11.4841L603.168 0.951315L603.168 6.41276L614.364 16.9456Z" fill="#FABF28"/>
<path d="M614.364 31.3408L614.364 25.8794L603.168 15.3466L603.168 20.808L614.364 31.3408Z" fill="#FABF28"/>
<path d="M614.364 45.7354L614.364 40.2739L603.168 29.7411L603.168 35.2026L614.364 45.7354Z" fill="#FABF28"/>
<path d="M614.364 60.1301L614.364 54.6687L603.168 44.1359L603.168 49.5973L614.364 60.1301Z" fill="#FABF28"/>
<path d="M108.327 117.617L8.38807 117.617L0.567803 110.852L116.148 110.852L108.327 117.617Z" fill="#FABF28"/>
<line x1="512.383" y1="117.11" x2="138.118" y2="117.11" stroke="#FABF28" stroke-width="2"/>
<circle cx="549.28" cy="106.341" r="1.12761" fill="#FABF28"/>
<circle cx="553.79" cy="106.341" r="1.12761" fill="#FABF28"/>
<circle cx="558.301" cy="106.341" r="1.12761" fill="#FABF28"/>
<circle cx="562.811" cy="106.341" r="1.12761" fill="#FABF28"/>
</svg>
