<svg width="41" height="40" viewBox="0 0 41 40" fill="none" xmlns="http://www.w3.org/2000/svg">
<path d="M12.3024 33.0232C11.2326 32.7504 10.2707 32.5062 9.30749 32.2608C9.29014 32.1703 9.27278 32.0786 9.25543 31.9881C9.87647 31.5691 10.4566 31.0621 11.1272 30.7485C12.5156 30.0964 13.6907 29.2064 14.6304 28.0623C14.0552 27.6148 13.4242 27.2441 12.9495 26.7297C11.245 24.8876 10.0463 22.7902 9.9087 20.2044C9.79466 18.0685 9.68061 15.9327 9.5269 13.8006C9.48599 13.2328 9.23187 12.68 9.20336 12.1135C9.17113 11.4602 9.14014 10.7499 9.3546 10.1524C9.87895 8.68717 9.45996 7.30129 9.15998 5.90921C8.99015 5.11834 9.07692 4.47622 9.59136 3.83659C9.92977 3.41512 10.1901 2.90936 10.3921 2.40484C10.6153 1.84578 11.0293 1.61149 11.5549 1.4677C12.5441 1.19746 13.599 1.05738 14.5027 0.611126C15.5502 0.0942093 16.5381 0.15247 17.6253 0.28139C18.8376 0.425184 20.0722 0.416508 21.297 0.404112C21.623 0.400393 21.9465 0.141315 22.2701 0C22.782 1.05491 22.818 1.08342 23.8828 0.562781C24.3415 0.338412 24.5869 0.50576 24.7034 0.908633C24.872 1.48877 25.0877 1.98337 25.56 2.43087C25.9691 2.81887 26.1277 3.46222 26.4327 3.9717C26.7203 4.45143 27.0574 4.90017 27.3649 5.36874C27.5074 5.58567 27.6624 5.80385 27.7553 6.04309C27.9549 6.56125 28.1285 7.06081 28.7383 7.27898C28.902 7.33724 29.0458 7.66202 29.0644 7.87647C29.1697 9.06525 29.6668 10.2268 29.3643 11.4428C29.2206 12.0205 29.0036 12.5795 28.8276 13.1498C28.7681 13.3444 28.628 13.6258 28.7074 13.7349C30.1255 15.6748 29.1028 17.3681 27.9698 18.8259C27.1516 19.8784 27.1008 20.87 27.2459 22.0601C27.3649 22.0601 27.4876 22.0898 27.5892 22.0551C29.2825 21.501 30.4726 22.401 31.5436 23.4893C32.1696 24.1265 32.6518 24.9025 33.2245 25.5942C33.3175 25.7058 33.5455 25.7479 33.7117 25.7467C33.9695 25.7454 34.2261 25.6797 34.5149 25.6363C29.0718 39.7654 11.9627 43.6689 0.495117 36.4655C3.41563 36.794 6.05848 36.4246 8.56373 35.4007C9.7649 34.9098 10.8545 34.1425 11.9838 33.4843C12.1028 33.4149 12.1623 33.2302 12.3024 33.0232Z" fill="#FABF28"/>
<path d="M4.74174 27.1746C6.01977 27.1746 7.09451 27.1746 8.16925 27.1746C8.19652 27.1151 8.22255 27.0556 8.24983 26.9973C4.29176 25.7156 2.07038 23.095 1.77783 18.9002C3.00504 19.2287 4.13061 19.5312 5.25741 19.8324C5.2884 19.7654 5.31939 19.6997 5.35038 19.6328C5.18675 19.484 5.02684 19.3316 4.8595 19.1878C2.02575 16.7594 1.11092 12.9997 2.51664 9.54735C2.86497 8.69202 2.95174 8.71061 3.61245 9.3267C5.00329 10.6208 6.44868 11.8555 7.84943 13.1385C8.07256 13.343 8.28453 13.6566 8.3242 13.943C8.41469 14.6087 8.4556 15.2929 8.40974 15.9636C8.25478 18.1998 8.60683 20.389 9.04566 22.5583C9.2787 23.7062 9.73612 24.7995 10.5518 25.718C11.2646 26.5213 11.8831 27.4089 12.5984 28.3311C11.1108 29.2881 9.54274 30.2971 7.84819 31.388C6.49578 30.488 5.4384 29.0972 4.74174 27.1746Z" fill="#FABF28"/>
<path d="M30.2938 7.34735C31.7577 7.63866 32.9602 8.32168 33.9816 9.29478C34.3572 9.65302 34.6894 9.72616 35.1282 9.56873C36.5935 9.04438 38.0574 8.51754 39.5772 7.97211C39.0045 9.68773 37.8616 11.0067 36.3802 12.0777C36.3988 12.1397 36.4174 12.2017 36.436 12.2624C37.1104 12.1211 37.7897 12.0008 38.4591 11.8335C39.1136 11.6699 39.7557 11.4604 40.44 11.3525C39.5784 12.726 38.5186 13.8652 37.2616 14.8086C36.8562 15.1135 36.6951 15.4284 36.6988 15.9478C36.7162 18.8621 36.2538 21.7008 35.2386 24.4292C34.4576 24.6411 34.02 24.3548 33.4932 23.73C32.6689 22.7507 31.6561 21.888 30.5937 21.1665C30.0087 20.7686 29.1583 20.7612 28.3687 20.5628C28.5335 20.3137 28.7046 20.0025 28.9252 19.7335C30.3545 17.9869 30.89 16.042 30.3037 13.8231C30.2429 13.5925 30.2752 13.326 30.3111 13.0843C30.5528 11.474 30.9532 9.86996 30.3062 8.25351C30.2095 8.01054 30.2938 7.69444 30.2938 7.34735Z" fill="#FABF28"/>
</svg>
