<svg width="44" height="40" viewBox="0 0 44 40" fill="none" xmlns="http://www.w3.org/2000/svg">
<path d="M26.4722 13.4318V8.10948H38.8028V0H5.22615V8.10948H17.5582V13.4275C7.53584 13.8819 0 15.8411 0 18.1882C0 20.5352 7.53946 22.4945 17.5582 22.9517V40H26.4751V22.9503C36.4794 22.4945 44 20.5367 44 18.1918C44 15.8469 36.4794 13.8891 26.4751 13.4333M26.4751 21.5063V21.502C26.2235 21.5177 24.931 21.5943 22.0529 21.5943C19.7519 21.5943 18.1331 21.5299 17.5626 21.5005V21.5077C8.70808 21.1206 2.09872 19.5986 2.09872 17.7775C2.09872 15.9564 8.7088 14.4365 17.5626 14.0487V19.9914C18.1426 20.0308 19.8012 20.1274 22.0906 20.1274C24.8403 20.1274 26.2228 20.0143 26.4766 19.9914V14.0487C35.3137 14.4372 41.9078 15.9606 41.9078 17.7753C41.9078 19.59 35.3108 21.1141 26.4766 21.5027" fill="#FABF28"/>
</svg>
