<svg width="31" height="40" viewBox="0 0 31 40" fill="none" xmlns="http://www.w3.org/2000/svg">
<path d="M30.2272 18.3276C30.6717 17.4547 30.8947 16.5228 30.9773 15.556C31.0805 14.3399 30.8355 13.2015 30.1666 12.1623C29.5569 11.2143 28.7132 10.4983 27.7581 9.8976C26.5758 9.15342 25.2917 8.61975 23.969 8.16922C23.8341 8.12363 23.7805 8.08475 23.8218 7.92518C24.2883 6.13245 24.7411 4.33569 25.205 2.54161C25.238 2.41423 25.2022 2.38875 25.0866 2.36059C24.0062 2.10181 22.9258 1.84034 21.8467 1.57351C21.7229 1.54267 21.6692 1.55071 21.6334 1.69284C21.193 3.43865 20.7415 5.18311 20.2984 6.92892C20.2681 7.05094 20.2282 7.08178 20.1002 7.05094C19.2592 6.85249 18.4169 6.65941 17.5746 6.47303C17.4356 6.44219 17.4081 6.39794 17.4425 6.26251C17.8967 4.50866 18.3426 2.75213 18.7968 0.998275C18.8284 0.876256 18.8092 0.833348 18.6784 0.802509C17.5925 0.543722 16.5079 0.280912 15.4234 0.012739C15.3023 -0.01676 15.2651 -0.000669949 15.2348 0.121349C14.7765 1.92749 14.3113 3.73096 13.8516 5.5371C13.8255 5.64035 13.8007 5.67789 13.6755 5.6484C12.9075 5.4647 12.1367 5.29575 11.3715 5.10132C9.84651 4.71381 8.31328 4.35312 6.78417 3.97768C6.67131 3.94952 6.62176 3.96695 6.59149 4.08763C6.30521 5.23139 6.01343 6.37246 5.71889 7.51354C5.69274 7.61276 5.69825 7.65567 5.81799 7.68249C6.43458 7.81926 7.05118 7.96139 7.66502 8.11022C8.13986 8.22554 8.6202 8.33281 9.04961 8.57819C9.74741 8.97776 10.0736 9.74876 9.87816 10.5131C9.32212 12.6786 8.76746 14.844 8.2128 17.0109C7.46133 19.9474 6.70985 22.8839 5.95837 25.8204C5.82487 26.3393 5.38445 26.7228 4.8463 26.7831C4.61095 26.8099 4.3811 26.7617 4.15676 26.708C3.39427 26.5257 2.63179 26.3366 1.87205 26.1422C1.75231 26.1113 1.70001 26.1288 1.64909 26.2427C1.11094 27.4656 0.565914 28.6858 0.0222643 29.9073C-0.0282012 30.0209 0.00712417 30.0924 0.128241 30.1219C2.40607 30.673 4.68527 31.2214 6.95759 31.7939C7.09798 31.8288 7.11174 31.8797 7.07871 32.0044C6.61075 33.8186 6.14968 35.6342 5.68311 37.4484C5.65145 37.569 5.66934 37.6133 5.80285 37.6455C6.87914 37.9016 7.95268 38.163 9.02621 38.4312C9.17348 38.4674 9.21752 38.4339 9.25331 38.2944C9.70474 36.503 10.1644 34.713 10.62 32.9229C10.6489 32.809 10.6806 32.7661 10.8196 32.8023C11.6495 33.0208 12.4822 33.23 13.3162 33.4325C13.4676 33.4687 13.5007 33.5143 13.4607 33.6658C12.9969 35.4491 12.5414 37.2352 12.0803 39.0185C12.05 39.1378 12.083 39.1741 12.1987 39.2022C13.2749 39.4583 14.3499 39.7171 15.4234 39.9853C15.5858 40.0255 15.6243 39.9853 15.6615 39.8405C16.1157 38.045 16.5795 36.251 17.0337 34.4542C17.0709 34.3054 17.1218 34.2719 17.2732 34.3C18.4252 34.5172 19.5854 34.6754 20.7567 34.7385C21.9045 34.8001 23.0483 34.772 24.1782 34.5427C26.0046 34.1713 27.4979 33.2903 28.5412 31.7631C29.5528 30.2814 30.1116 28.6389 30.2286 26.8636C30.2988 25.8096 30.0799 24.8053 29.5349 23.8815C29.0119 22.9965 28.2645 22.3234 27.403 21.7616C27.0837 21.5537 26.7506 21.37 26.4065 21.185C26.4863 21.1327 26.5675 21.1273 26.6432 21.1072C28.2494 20.6835 29.4812 19.7972 30.2313 18.3263L30.2272 18.3276ZM20.5846 29.4474C19.8593 29.6807 19.1092 29.7437 18.4376 29.7437C17.2002 29.733 16.0689 29.5681 14.9458 29.3415C13.9383 29.1377 12.946 28.8749 11.9495 28.6268C11.8367 28.5986 11.8243 28.5598 11.8504 28.4605C12.4836 25.9987 13.1153 23.5369 13.7456 21.0737C13.7622 21.008 13.7608 20.9477 13.8709 20.9731C15.3491 21.3097 16.8383 21.6087 18.2751 22.0968C19.3652 22.4669 20.4222 22.904 21.3444 23.5972C21.983 24.0772 22.5019 24.6511 22.7523 25.4168C23.3056 27.1076 22.3505 28.8816 20.5833 29.4488L20.5846 29.4474ZM21.5109 18.2364C20.937 18.3692 20.3534 18.4054 19.7657 18.392C18.8064 18.3652 17.865 18.215 16.9319 18.0139C16.2162 17.8597 15.5101 17.6679 14.7999 17.4923C14.6967 17.4668 14.6747 17.4292 14.7008 17.326C15.2734 15.1042 15.8432 12.881 16.4102 10.6565C16.4322 10.5734 16.4543 10.5278 16.5547 10.5506C17.8375 10.8429 19.1326 11.095 20.3727 11.5428C21.2026 11.8432 22.0009 12.2012 22.6959 12.7456C23.3001 13.2176 23.7612 13.7901 23.9264 14.545C24.3048 16.2654 23.2795 17.8275 21.5123 18.2364H21.5109Z" fill="#FABF28"/>
</svg>
