<svg width="26" height="26" viewBox="0 0 26 26" fill="none" xmlns="http://www.w3.org/2000/svg">
<path d="M7.67472 21.4651C6.97937 21.2878 6.35411 21.1291 5.72804 20.9695C5.71676 20.9107 5.70548 20.8511 5.6942 20.7923C6.09788 20.5199 6.47497 20.1904 6.91088 19.9865C7.81331 19.5627 8.57716 18.9842 9.18791 18.2405C8.81405 17.9496 8.40392 17.7087 8.09532 17.3743C6.98742 16.1769 6.20827 14.8136 6.11883 13.1328C6.0447 11.7445 5.97057 10.3562 5.87066 8.97036C5.84407 8.60133 5.67889 8.24197 5.66036 7.87374C5.63941 7.44912 5.61927 6.98742 5.75866 6.59905C6.09949 5.64666 5.82715 4.74584 5.63216 3.84099C5.52177 3.32692 5.57818 2.90955 5.91256 2.49378C6.13253 2.21983 6.30173 1.89108 6.43307 1.56315C6.5781 1.19975 6.84722 1.04747 7.18886 0.954002C7.83184 0.77835 8.51753 0.6873 9.10492 0.397232C9.78578 0.061236 10.428 0.0991058 11.1346 0.182903C11.9226 0.27637 12.7251 0.27073 13.5212 0.262673C13.7331 0.260255 13.9434 0.091855 14.1537 0C14.4865 0.685689 14.5099 0.704221 15.202 0.365808C15.5001 0.219968 15.6597 0.328744 15.7354 0.590611C15.845 0.9677 15.9852 1.28919 16.2922 1.58007C16.5581 1.83226 16.6612 2.25045 16.8594 2.58161C17.0463 2.89343 17.2655 3.18511 17.4653 3.48968C17.558 3.63069 17.6587 3.7725 17.7191 3.92801C17.8489 4.26481 17.9617 4.58953 18.3581 4.73134C18.4645 4.76921 18.5579 4.98031 18.57 5.1197C18.6385 5.89241 18.9616 6.6474 18.765 7.43783C18.6715 7.81331 18.5305 8.1767 18.4161 8.54735C18.3774 8.67385 18.2864 8.85675 18.338 8.92766C19.2597 10.1886 18.595 11.2893 17.8585 12.2369C17.3267 12.9209 17.2937 13.5655 17.388 14.339C17.4653 14.339 17.5451 14.3584 17.6112 14.3358C18.7118 13.9757 19.4853 14.5606 20.1815 15.2681C20.5884 15.6822 20.9018 16.1866 21.2741 16.6362C21.3345 16.7087 21.4828 16.7361 21.5907 16.7353C21.7583 16.7345 21.9251 16.6918 22.1129 16.6636C18.5748 25.8475 7.45395 28.3848 0 23.7026C1.89834 23.9161 3.61618 23.676 5.2446 23.0105C6.02536 22.6914 6.73361 22.1926 7.46765 21.7648C7.545 21.7197 7.58367 21.5996 7.67472 21.4651Z" fill="#181921"/>
<path d="M2.76028 17.6637C3.591 17.6637 4.28958 17.6637 4.98816 17.6637C5.00589 17.625 5.02281 17.5863 5.04054 17.5485C2.46779 16.7153 1.0239 15.012 0.83374 12.2853C1.63143 12.4989 2.36304 12.6955 3.09547 12.8913C3.11561 12.8478 3.13575 12.805 3.1559 12.7615C3.04954 12.6648 2.9456 12.5657 2.83682 12.4723C0.994889 10.8938 0.400249 8.44999 1.31396 6.20599C1.54038 5.65003 1.59678 5.66211 2.02624 6.06257C2.93029 6.90377 3.86979 7.70629 4.78028 8.54024C4.92531 8.67318 5.0631 8.87704 5.08888 9.06317C5.1477 9.49585 5.17429 9.94062 5.14448 10.3765C5.04376 11.8301 5.27259 13.253 5.55783 14.6631C5.70931 15.4092 6.00663 16.1199 6.53681 16.7169C7.00011 17.2391 7.40218 17.816 7.86709 18.4155C6.9002 19.0375 5.88093 19.6934 4.77948 20.4024C3.90041 19.8174 3.21311 18.9134 2.76028 17.6637Z" fill="#181921"/>
<path d="M19.3692 4.77588C20.3208 4.96523 21.1024 5.4092 21.7663 6.04171C22.0105 6.27457 22.2264 6.32211 22.5116 6.21978C23.464 5.87895 24.4156 5.5365 25.4035 5.18198C25.0312 6.29713 24.2883 7.15444 23.3254 7.8506C23.3375 7.89089 23.3496 7.93118 23.3617 7.97066C23.8 7.8788 24.2416 7.80065 24.6767 7.69187C25.1021 7.58551 25.5195 7.44934 25.9643 7.37924C25.4043 8.27201 24.7154 9.01249 23.8983 9.62566C23.6349 9.82387 23.5301 10.0285 23.5325 10.3661C23.5438 12.2604 23.2433 14.1056 22.5834 15.8791C22.0757 16.0168 21.7913 15.8307 21.4489 15.4246C20.913 14.7881 20.2548 14.2273 19.5642 13.7583C19.1839 13.4997 18.6312 13.4949 18.1179 13.3659C18.2251 13.204 18.3363 13.0017 18.4797 12.8269C19.4087 11.6916 19.7568 10.4274 19.3757 8.98509C19.3362 8.83522 19.3572 8.66199 19.3805 8.50487C19.5376 7.45821 19.7979 6.41557 19.3773 5.36488C19.3144 5.20695 19.3692 5.00149 19.3692 4.77588Z" fill="#181921"/>
</svg>
