<svg width="21" height="22" viewBox="0 0 21 22" fill="none" xmlns="http://www.w3.org/2000/svg">
<circle cx="10.5" cy="11.1704" r="10.5" fill="#181921"/>
<path d="M10.5287 10.7331C12.2748 10.7331 13.6903 9.30517 13.6903 7.54377C13.6903 5.78238 12.2748 4.35449 10.5287 4.35449C8.78266 4.35449 7.36719 5.78238 7.36719 7.54377C7.36719 9.30517 8.78266 10.7331 10.5287 10.7331Z" fill="white"/>
<path d="M15.5363 17.986C15.7391 17.9875 15.9392 17.9402 16.1202 17.848C16.3012 17.7558 16.4578 17.6214 16.5769 17.4559C16.6961 17.2904 16.7744 17.0986 16.8054 16.8965C16.8364 16.6944 16.8191 16.4877 16.755 16.2936C16.33 14.9651 15.4984 13.8067 14.3796 12.985C13.2609 12.1634 11.9127 11.7207 10.5288 11.7207C9.14498 11.7207 7.79676 12.1634 6.67802 12.985C5.55928 13.8067 4.72763 14.9651 4.30264 16.2936C4.23856 16.4877 4.22129 16.6944 4.25227 16.8965C4.28324 17.0986 4.36156 17.2904 4.48072 17.4559C4.59989 17.6214 4.75646 17.7558 4.93745 17.848C5.11844 17.9402 5.31861 17.9875 5.52136 17.986H15.5363Z" fill="white"/>
<path fill-rule="evenodd" clip-rule="evenodd" d="M15 8.67041C13.8954 8.67041 13 9.56584 13 10.6704V11.6704H12C10.8954 11.6704 10 12.5658 10 13.6704C10 14.775 10.8954 15.6704 12 15.6704H13V16.6704C13 17.775 13.8954 18.6704 15 18.6704C16.1046 18.6704 17 17.775 17 16.6704V15.6704H18C19.1046 15.6704 20 14.775 20 13.6704C20 12.5658 19.1046 11.6704 18 11.6704H17V10.6704C17 9.56584 16.1046 8.67041 15 8.67041Z" fill="#181921"/>
<path fill-rule="evenodd" clip-rule="evenodd" d="M16 10.6704C16 10.1181 15.5523 9.67041 15 9.67041C14.4477 9.67041 14 10.1181 14 10.6704V12.6704H12C11.4477 12.6704 11 13.1181 11 13.6704C11 14.2227 11.4477 14.6704 12 14.6704H14V16.6704C14 17.2227 14.4477 17.6704 15 17.6704C15.5523 17.6704 16 17.2227 16 16.6704V14.6704H18C18.5523 14.6704 19 14.2227 19 13.6704C19 13.1181 18.5523 12.6704 18 12.6704H16V10.6704Z" fill="white"/>
</svg>
