<svg width="75" height="38" viewBox="0 0 75 38" fill="none" xmlns="http://www.w3.org/2000/svg">
<path d="M0 33.1493V4.86322H5.8927L14.2565 19.9392L17.1458 26.0591H17.3359C16.829 21.1333 16.5756 17.8246 16.5756 16.1329V4.86322H22.0501V33.1493H16.1954L7.8696 17.9987L4.94226 11.9534H4.75217C4.80286 12.451 4.8789 13.2471 4.98028 14.3417C5.30976 17.7002 5.4745 20.188 5.4745 21.805V33.1493H0Z" fill="#000000"/>
<path d="M36.8084 33.1493V9.56513H28.7107V4.86322H50.7228V9.56513H42.5491V33.1493H36.8084Z" fill="#000000"/>
<path d="M73.6929 8.66953L70.8036 11.8788C69.0041 10.4359 67.344 9.67708 65.8233 9.60245C63.5676 9.82635 62.3764 10.8837 62.2497 12.7744C62.2497 13.9436 63.1114 15.0134 64.8349 15.9836C65.2404 16.2075 65.9247 16.5434 66.8878 16.9912C69.3463 18.1853 71.0444 19.2426 71.9821 20.1631C73.4015 21.5811 74.1111 23.3101 74.1111 25.3501C74.1111 28.6091 72.8185 30.9601 70.2333 32.403C69.3463 32.8757 68.3451 33.224 67.23 33.4479V37.8886H63.3902V33.5971C60.653 33.2986 58.2579 32.3408 56.2049 30.7237C56.0022 30.5745 55.8247 30.4252 55.6727 30.2759L58.2198 26.5069C60.4502 28.2235 62.5918 29.0818 64.6448 29.0818C67.2553 29.0321 68.5732 27.9125 68.5986 25.7233C68.5986 24.4048 67.6862 23.1982 65.8613 22.1036C65.4051 21.8299 64.6701 21.4443 63.6563 20.9467C61.2232 19.7277 59.5631 18.658 58.6761 17.7375C57.4088 16.3941 56.7752 14.8268 56.7752 13.0356C56.7752 9.97562 57.9664 7.73661 60.3488 6.31857C61.2612 5.79614 62.275 5.43541 63.3902 5.23639V0.833008H67.23V5.16175C69.5617 5.48517 71.716 6.65442 73.6929 8.66953Z" fill="#000000"/>
</svg>
