<svg width="94" height="87" viewBox="0 0 94 87" fill="none" xmlns="http://www.w3.org/2000/svg">
<path d="M56.5543 29.2427V17.7996H82.897V0.364258H11.165V17.7996H37.5108V29.2335C16.0993 30.2104 0 34.4227 0 39.4689C0 44.515 16.107 48.7273 37.5108 49.7104V86.3643H56.5605V49.7073C77.9332 48.7273 94 44.5181 94 39.4766C94 34.435 77.9332 30.2258 56.5605 29.2458M56.5605 46.6027V46.5935C56.023 46.6273 53.2616 46.792 47.1131 46.792C42.1973 46.792 38.739 46.6535 37.5201 46.5904V46.6058C18.6036 45.7735 4.48364 42.5012 4.48364 38.5858C4.48364 34.6704 18.6052 31.4027 37.5201 30.5689V43.3458C38.7591 43.4304 42.3026 43.6381 47.1936 43.6381C53.068 43.6381 56.0215 43.395 56.5636 43.3458V30.5689C75.4428 31.4043 89.5303 34.6796 89.5303 38.5812C89.5303 42.4827 75.4367 45.7596 56.5636 46.595" fill="#181921"/>
</svg>
