<svg width="30" height="23" viewBox="0 0 30 23" fill="none" xmlns="http://www.w3.org/2000/svg">
<path d="M10.3883 6.65573L10.1941 5.9519C10.1721 5.87888 9.97064 5.12394 9.59243 3.6856C9.54863 3.51767 9.5092 3.36873 9.47269 3.2373H9.42889C9.23175 4.08425 8.99519 4.9896 8.71775 5.9519L8.47681 6.86017H10.1605C10.2773 6.74189 10.4058 6.63675 10.5431 6.54184C10.489 6.57834 10.4379 6.61631 10.3883 6.65573Z" fill="#181921"/>
<path d="M10.1575 6.86157C10.1049 6.91414 10.0553 6.96963 10.0085 7.02658C10.0567 6.96963 10.1064 6.91414 10.1575 6.86157Z" fill="#181921"/>
<path d="M9.64056 7.58887C9.63325 7.60347 9.62595 7.61953 9.61865 7.63559C9.62449 7.61953 9.63179 7.60347 9.64056 7.58887Z" fill="#181921"/>
<path d="M9.78663 7.32739C9.76034 7.36828 9.73552 7.40917 9.71069 7.45151C9.73552 7.40917 9.7618 7.36828 9.78663 7.32739Z" fill="#181921"/>
<path d="M11.4147 6.13892C11.403 6.14184 11.3899 6.14476 11.3782 6.14768C11.3899 6.14476 11.4015 6.14184 11.4147 6.13892Z" fill="#181921"/>
<path d="M17.2864 0H1.67636C0.750565 0 0 0.750565 0 1.67636V10.578C0 11.5038 0.750565 12.2544 1.67636 12.2544H4.11059V14.912C4.11059 15.2537 4.51069 15.4392 4.77208 15.2172L8.24892 12.2544H9.3514V8.81549C9.3514 8.58331 9.38352 8.35843 9.43755 8.14232H8.11457L7.53486 10.2772H5.84682L8.50738 1.97863H10.4553L11.7666 6.06877C11.8835 6.05417 12.0003 6.04395 12.1215 6.04395H18.9627V1.67782C18.9627 0.750565 18.2122 0 17.2864 0Z" fill="#181921"/>
<path d="M10.9066 6.32861C10.8876 6.33737 10.8701 6.34614 10.8511 6.3549C10.8686 6.34614 10.8876 6.33737 10.9066 6.32861Z" fill="#181921"/>
<path d="M11.2205 6.19727C11.203 6.20311 11.1855 6.21041 11.1694 6.21625C11.187 6.20895 11.203 6.20311 11.2205 6.19727Z" fill="#181921"/>
<path d="M18.4004 11.6584C18.7669 12.6397 19.2736 13.4808 19.9176 14.1847C20.5294 13.4984 21.0186 12.6558 21.3851 11.6584H18.4004Z" fill="#181921"/>
<path d="M27.7314 7.25732H12.1214C11.1956 7.25732 10.4451 8.00789 10.4451 8.93368V17.8353C10.4451 18.7611 11.1956 19.5117 12.1214 19.5117H21.1603L24.6372 22.4745C24.8971 22.6965 25.2987 22.511 25.2987 22.1693V19.5117H27.7329C28.6587 19.5117 29.4093 18.7611 29.4093 17.8353V8.93368C29.4093 8.00789 28.6572 7.25732 27.7314 7.25732ZM23.2631 17.4557C23.2514 17.4732 23.2441 17.4907 23.2383 17.5082C21.9211 17.1563 20.7953 16.5737 19.8607 15.7603C18.9378 16.5167 17.8266 17.1067 16.5255 17.5345C16.397 17.2293 16.197 16.8993 15.9254 16.5474C15.9093 16.5299 15.8976 16.5153 15.8918 16.5036C17.1812 16.1517 18.2457 15.6406 19.0853 14.9718C18.3464 14.0898 17.7404 12.9844 17.2673 11.657H16.0422V10.6276H19.3949V9.23449H20.42V10.6276H23.8136V11.657H22.587C22.1372 12.9377 21.5108 14.0285 20.7106 14.928C21.6159 15.6493 22.7009 16.1575 23.9625 16.451C23.707 16.7182 23.4734 17.0526 23.2631 17.4557Z" fill="#181921"/>
</svg>
