<svg width="27" height="40" viewBox="0 0 27 40" fill="none" xmlns="http://www.w3.org/2000/svg">
<path fill-rule="evenodd" clip-rule="evenodd" d="M13.5 1.75872e-05C13.7896 -0.00178474 14.0703 0.135002 14.2507 0.381122L22.7161 11.9305C22.7951 12.0383 22.8508 12.162 22.8796 12.2934L26.9774 30.9797C27.0646 31.3775 26.8947 31.788 26.5547 32.0007L13.9915 39.8601C13.8401 39.9549 13.6696 40.0011 13.5 40C13.3304 40.0011 13.1599 39.9549 13.0085 39.8601L0.445338 32.0007C0.105375 31.788 -0.0645728 31.3776 0.0226172 30.9798L4.11871 12.2935C4.14753 12.162 4.2033 12.0383 4.28233 11.9305L12.7494 0.38105C12.9298 0.134974 13.2105 -0.00178451 13.5 1.75872e-05ZM12.5632 3.80981L6.06242 12.6771L7.60892 17.5257L12.5632 8.7968V3.80981ZM13.5 10.9398L8.38359 19.9544L11.6629 30.2358H15.3365L18.6157 19.9531L13.5 10.9398ZM19.8697 22.1626L17.2952 30.2358H24.4518L19.8697 22.1626ZM22.7621 32.1406H16.6877L15.1739 36.8877L22.7621 32.1406ZM13.4999 35.9951L14.7291 32.1406H12.2705L13.4999 35.9951ZM9.70427 30.2358L7.12962 22.1638L2.5482 30.2358H9.70427ZM3.16303 25.3589L6.35496 19.7351L5.19379 16.0946L3.16303 25.3589ZM4.23794 32.1406H10.3118L11.8259 36.8876L4.23794 32.1406ZM23.8361 25.3574L20.6443 19.7337L21.8048 16.0944L23.8361 25.3574ZM20.936 12.6771L19.3902 17.5242L14.4368 8.7968V3.81026L20.936 12.6771Z" fill="#FABF28"/>
</svg>
