<svg width="20" height="20" viewBox="0 0 20 20" fill="none" xmlns="http://www.w3.org/2000/svg">
<path d="M9.68466 7.54346C6.38551 7.54346 3.71216 10.2168 3.71216 13.516C3.71216 16.8151 6.38551 19.4885 9.68466 19.4885C12.9838 19.4885 15.6572 16.8151 15.6572 13.516C15.6572 10.2168 12.9838 7.54346 9.68466 7.54346ZM9.68466 13.0316C11.0436 13.0316 12.1512 13.9899 12.1512 15.1682C12.1512 16.2024 11.2976 17.0691 10.1691 17.2628V17.8703C10.1691 18.1374 9.95173 18.3521 9.68728 18.3521C9.42282 18.3521 9.2055 18.1348 9.2055 17.8703V17.2628C8.07698 17.0665 7.22339 16.2024 7.22339 15.1682C7.22339 14.9011 7.44072 14.6864 7.70517 14.6864C7.96963 14.6864 8.18695 14.9037 8.18695 15.1682C8.18695 15.8123 8.85987 16.3386 9.68728 16.3386C10.5147 16.3386 11.1876 15.8123 11.1876 15.1682C11.1876 14.524 10.5147 13.9977 9.68728 13.9977C8.32834 13.9977 7.22077 13.0394 7.22077 11.8611C7.22077 10.8269 8.07436 9.96021 9.20288 9.76645V9.15899C9.20288 8.89192 9.42021 8.67721 9.68466 8.67721C9.94912 8.67721 10.1664 8.89454 10.1664 9.15899V9.76645C11.295 9.96283 12.1485 10.8269 12.1485 11.8611C12.1485 12.1282 11.9312 12.3429 11.6668 12.3429C11.4023 12.3429 11.185 12.1256 11.185 11.8611C11.185 11.217 10.5121 10.6907 9.68466 10.6907C8.85726 10.6907 8.18433 11.217 8.18433 11.8611C8.18433 12.5053 8.85726 13.0316 9.68466 13.0316Z" fill="#181921"/>
<path d="M3.5636 1.89379V7.81654V8.07838V8.28523C3.5636 8.60467 3.34366 8.86389 3.07397 8.86389H0.489635C0.219943 8.86389 0 8.60467 0 8.28523V1.40939C0 1.08995 0.219943 0.830733 0.489635 0.830733H3.07397C3.34366 0.830733 3.5636 1.08995 3.5636 1.40939V1.89379Z" fill="#181921"/>
<path d="M17.2916 7.45257C17.0062 7.37402 16.6841 7.26928 16.3201 7.13051C15.9536 6.99173 15.5739 6.8451 15.1916 6.69586C13.8458 6.1748 13.2724 5.92606 12.3978 5.57781C12.1962 5.20601 11.8087 4.9494 11.3557 4.9494H8.45979C8.09322 4.9494 7.79473 4.65091 7.79473 4.28434H7.27105C7.27105 4.93893 7.8052 5.47308 8.45979 5.47308H11.3557C11.7223 5.47308 12.0208 5.77157 12.0208 6.13814C12.0208 6.50472 11.7223 6.80321 11.3557 6.80321H8.45979C7.87328 6.80321 7.37317 7.0441 6.88877 7.27452C6.44889 7.48399 6.03518 7.68298 5.59268 7.68298H4.14734V1.89115H4.63697C5.00355 1.89115 8.20581 0.66837 9.00442 0.66837C9.44692 0.66837 11.7956 2.28129 14.6863 4.06963C17.0507 5.53068 18.9411 6.70633 19.1244 6.83725C19.6167 7.19335 19.5146 8.05741 17.2863 7.44733L17.2916 7.45257Z" fill="#181921"/>
</svg>
