<svg width="17" height="26" viewBox="0 0 17 26" fill="none" xmlns="http://www.w3.org/2000/svg">
<path d="M8.1217 18.2C8.10916 18.1932 8.09093 18.1853 8.07383 18.1751C7.17682 17.6466 6.2798 17.1192 5.38165 16.5907C4.41283 16.0214 3.44287 15.452 2.47405 14.8827C1.66479 14.4075 0.856684 13.93 0.0474335 13.456C-0.00613659 13.4242 -0.0129753 13.3992 0.0200786 13.3459C0.613909 12.3683 1.20546 11.3896 1.79815 10.4108C2.48544 9.27553 3.17274 8.1414 3.86003 7.00613C4.97246 5.16883 6.08604 3.33266 7.19847 1.49536C7.4914 1.01109 7.78546 0.527947 8.07839 0.0448057C8.1141 -0.0141693 8.14944 -0.0149254 8.18439 0.0425374C8.94121 1.29235 9.69917 2.5433 10.456 3.79312C11.5981 5.67919 12.7401 7.56525 13.8833 9.45245C14.5592 10.5684 15.2351 11.6833 15.9099 12.7982C16.0159 12.9739 16.123 13.1486 16.229 13.3244C16.2655 13.3841 16.2545 13.4314 16.196 13.4662C15.4198 13.9232 14.6436 14.3791 13.8662 14.8362C12.3845 15.7072 10.9039 16.5794 9.4222 17.4504C9.01302 17.6908 8.60497 17.9312 8.19579 18.1706C8.17413 18.183 8.15476 18.2 8.1217 18.2Z" fill="#181921"/>
<path d="M0.0159311 14.9511C0.237828 15.0775 0.459725 15.2039 0.681622 15.3314C1.92083 16.0383 3.16118 16.7451 4.40039 17.4531C5.14801 17.8796 5.8945 18.3072 6.64098 18.7337C7.1155 19.0052 7.59229 19.2746 8.06567 19.5472C8.10891 19.5725 8.14078 19.5692 8.18174 19.545C8.99309 19.0811 9.80557 18.6172 10.6169 18.1544C12.0814 17.3189 13.5448 16.4835 15.0093 15.648C15.3985 15.426 15.7866 15.2039 16.1757 14.983C16.1985 14.9698 16.2178 14.9489 16.2497 14.9533C16.2531 14.983 16.2303 14.9973 16.2167 15.0159C15.0856 16.5549 13.9545 18.0939 12.8234 19.6329C11.5193 21.4072 10.2152 23.1814 8.91116 24.9546C8.66423 25.291 8.41616 25.6252 8.1715 25.9626C8.13167 26.0176 8.11119 26.0077 8.07591 25.9604C7.38405 25.0172 6.69219 24.0752 5.99919 23.132C5.23563 22.0931 4.47208 21.0532 3.70853 20.0144C3.06218 19.135 2.41697 18.2555 1.77062 17.3761C1.2028 16.6033 0.634967 15.8316 0.0671381 15.0588C0.0443794 15.028 0.0216207 14.9962 0 14.9643L0.0136552 14.95L0.0159311 14.9511Z" fill="#181921"/>
</svg>
