<svg width="28" height="44" viewBox="0 0 28 44" fill="none" xmlns="http://www.w3.org/2000/svg">
<path d="M13.7444 30.8C13.7232 30.7885 13.6923 30.775 13.6634 30.7578C12.1454 29.8634 10.6273 28.9709 9.10739 28.0765C7.46785 27.113 5.82638 26.1495 4.18684 25.186C2.81734 24.3819 1.44977 23.5738 0.0802719 22.7716C-0.010385 22.7178 -0.0219582 22.6756 0.033979 22.5854C1.03892 20.931 2.04 19.2746 3.04302 17.6182C4.20613 15.697 5.36923 13.7777 6.53234 11.8565C8.41492 8.74723 10.2994 5.63988 12.182 2.53061C12.6777 1.71107 13.1754 0.893447 13.6711 0.0758249C13.7315 -0.0239788 13.7913 -0.0252583 13.8505 0.0719863C15.1312 2.18706 16.4139 4.30405 17.6947 6.41912C19.6274 9.61091 21.5602 12.8027 23.4948 15.9964C24.6387 17.885 25.7825 19.7717 26.9244 21.6584C27.1037 21.9559 27.2851 22.2514 27.4644 22.5489C27.5262 22.65 27.5075 22.73 27.4085 22.7888C26.0949 23.5623 24.7814 24.3339 23.4659 25.1074C20.9584 26.5814 18.4528 28.0573 15.9452 29.5313C15.2528 29.9382 14.5622 30.3451 13.8698 30.7501C13.8331 30.7712 13.8003 30.8 13.7444 30.8Z" fill="#FABF28"/>
<path d="M0.0269602 25.3018C0.402477 25.5157 0.777995 25.7297 1.15351 25.9455C3.25063 27.1417 5.34968 28.3378 7.4468 29.5359C8.712 30.2577 9.97528 30.9814 11.2386 31.7032C12.0416 32.1627 12.8485 32.6185 13.6496 33.0798C13.7227 33.1226 13.7767 33.117 13.846 33.0761C15.219 32.291 16.594 31.506 17.9671 30.7228C20.4455 29.3089 22.922 27.8951 25.4004 26.4812C26.059 26.1054 26.7156 25.7297 27.3742 25.3557C27.4128 25.3334 27.4455 25.2981 27.4994 25.3055C27.5052 25.3557 27.4667 25.3799 27.4436 25.4115C25.5294 28.016 23.6152 30.6205 21.701 33.2249C19.4942 36.2275 17.2873 39.2301 15.0804 42.2308C14.6625 42.8 14.2427 43.3656 13.8287 43.9367C13.7613 44.0297 13.7266 44.013 13.6669 43.933C12.4961 42.3368 11.3252 40.7425 10.1524 39.1463C8.86028 37.3883 7.56812 35.6285 6.27595 33.8705C5.18214 32.3822 4.09025 30.8939 2.99644 29.4057C2.0355 28.0979 1.07456 26.7919 0.113618 25.4841C0.0751034 25.432 0.0365889 25.3781 0 25.3241L0.0231088 25.2999L0.0269602 25.3018Z" fill="#FABF28"/>
</svg>
