<svg width="26" height="26" viewBox="0 0 26 26" fill="none" xmlns="http://www.w3.org/2000/svg">
<path d="M24.9194 0.228883C24.8441 0.553772 24.7724 0.87947 24.6926 1.20355C24.4118 2.34309 24.0501 3.45306 23.5121 4.50145C22.6529 6.17653 21.3456 7.39507 19.6961 8.26886C18.5043 8.90041 17.24 9.34642 15.9582 9.75274C14.9601 10.0691 13.9648 10.3956 12.9779 10.7452C11.4592 11.2832 10.1816 12.1967 9.057 13.3362C7.37179 15.0433 6.2999 17.0769 5.80812 19.4216C5.67524 20.0564 5.66876 20.6912 5.75505 21.3308C5.7753 21.4811 5.77571 21.6355 5.77409 21.7874C5.77368 21.8263 5.73803 21.887 5.70522 21.8984C5.66957 21.9109 5.60637 21.8891 5.5764 21.8603C5.53224 21.8178 5.50024 21.7582 5.47391 21.7011C4.81806 20.2764 4.46683 18.7913 4.5199 17.2106C4.60052 14.8116 5.46094 12.7294 6.99667 10.9065C8.29015 9.37073 9.90325 8.28952 11.7756 7.59924C13.0853 7.11636 14.4169 6.69344 15.7334 6.23001C16.6607 5.9035 17.5839 5.56483 18.5015 5.2124C19.5183 4.82148 20.3912 4.18426 21.2606 3.54704C22.373 2.73158 23.3594 1.77555 24.3118 0.783057C24.4977 0.589015 24.6962 0.407126 24.8894 0.219971C24.8996 0.222806 24.9097 0.226047 24.9194 0.228883Z" fill="#181921"/>
<path d="M22.2503 7.49048C22.1381 8.29662 21.9817 9.06631 21.7225 9.81088C21.5511 10.3027 21.381 10.7981 21.163 11.2696C20.5258 12.6506 19.4166 13.4519 17.9571 13.7979C17.3498 13.9417 16.7325 13.9826 16.1098 13.9789C14.833 13.9716 13.5577 14.0279 12.2914 14.188C11.3098 14.3119 10.3433 14.5246 9.40302 14.8426C9.26812 14.888 9.12391 14.9066 8.98415 14.9374C8.97362 14.9216 8.96268 14.9054 8.95215 14.8896C9.01048 14.7733 9.06315 14.6534 9.12918 14.542C9.59949 13.7496 10.2635 13.1533 11.0238 12.647C11.9158 12.0527 12.8958 11.6411 13.8891 11.2652C15.0797 10.8151 16.2885 10.4133 17.4884 9.9871C18.5554 9.60833 19.6087 9.19756 20.6052 8.65432C21.1217 8.37278 21.6066 8.04668 22.0413 7.64847C22.1008 7.59459 22.1705 7.55043 22.2503 7.49048Z" fill="#181921"/>
<path d="M6.96289 18.297C7.00219 18.137 7.02487 17.9709 7.0832 17.8186C7.45792 16.8411 8.17899 16.2079 9.11396 15.7858C10.0408 15.3669 11.0122 15.1227 12.0173 14.9793C13.5895 14.7544 15.1698 14.6495 16.7553 14.5948C17.4148 14.5721 18.0739 14.5365 18.7334 14.5077C18.7922 14.5049 18.8509 14.5073 18.923 14.5073C18.908 14.5486 18.9007 14.581 18.8853 14.609C18.0974 15.9884 17.0049 17.0242 15.5088 17.6055C14.7991 17.8814 14.061 17.9332 13.314 17.8599C12.5844 17.7886 11.8593 17.6736 11.1297 17.6019C9.93023 17.484 8.74897 17.5468 7.62117 18.0309C7.51747 18.0754 7.41579 18.1257 7.31411 18.1747C7.21365 18.2233 7.1144 18.2747 7.01474 18.325C6.99692 18.3156 6.98031 18.3063 6.96289 18.297Z" fill="#181921"/>
<path d="M15.6034 18.6289C14.9492 19.9029 14.0223 20.7678 12.6122 21.0457C11.8875 21.1883 11.1858 21.1073 10.4785 20.9453C9.77407 20.784 9.06677 20.6321 8.35542 20.5078C7.74251 20.4004 7.12878 20.4166 6.53856 20.656C6.48022 20.6795 6.41581 20.6888 6.31494 20.7152C6.34411 20.6285 6.35586 20.5637 6.38583 20.5094C6.90719 19.5756 7.68134 18.9971 8.74796 18.8246C9.52858 18.6982 10.295 18.7962 11.0667 18.9206C12.0645 19.0818 13.0712 19.1604 14.0835 19.0891C14.5267 19.0579 14.9318 18.8849 15.3381 18.7209C15.4134 18.6901 15.4924 18.6666 15.6034 18.6289Z" fill="#181921"/>
<path d="M13 0C5.82045 0 0 5.82045 0 13C0 20.1796 5.82045 26 13 26C20.1796 26 26 20.1796 26 13C26 5.82045 20.1796 0 13 0ZM13 23.9778C6.9369 23.9778 2.02225 19.0627 2.02225 13C2.02225 6.9373 6.9373 2.02225 13 2.02225C19.0627 2.02225 23.9778 6.9369 23.9778 13C23.9778 19.0631 19.0627 23.9778 13 23.9778Z" fill="#181921"/>
</svg>
