<svg width="20" height="20" viewBox="0 0 20 20" fill="none" xmlns="http://www.w3.org/2000/svg">
<path d="M9.68466 0.501343C6.38551 0.501343 3.71216 3.1747 3.71216 6.47384C3.71216 9.77299 6.38551 12.4463 9.68466 12.4463C12.9838 12.4463 15.6572 9.77299 15.6572 6.47384C15.6572 3.1747 12.9838 0.501343 9.68466 0.501343ZM9.68466 5.98945C11.0436 5.98945 12.1512 6.94777 12.1512 8.12604C12.1512 9.16029 11.2976 10.027 10.1691 10.2207V10.8282C10.1691 11.0953 9.95173 11.31 9.68728 11.31C9.42282 11.31 9.2055 11.0927 9.2055 10.8282V10.2207C8.07698 10.0244 7.22339 9.16029 7.22339 8.12604C7.22339 7.85896 7.44072 7.64426 7.70517 7.64426C7.96963 7.64426 8.18695 7.86158 8.18695 8.12604C8.18695 8.77016 8.85987 9.29645 9.68728 9.29645C10.5147 9.29645 11.1876 8.77016 11.1876 8.12604C11.1876 7.48192 10.5147 6.95563 9.68728 6.95563C8.32834 6.95563 7.22077 5.9973 7.22077 4.81904C7.22077 3.78478 8.07436 2.9181 9.20288 2.72434V2.11688C9.20288 1.8498 9.42021 1.6351 9.68466 1.6351C9.94912 1.6351 10.1664 1.85242 10.1664 2.11688V2.72434C11.295 2.92072 12.1485 3.78478 12.1485 4.81904C12.1485 5.08611 11.9312 5.30082 11.6668 5.30082C11.4023 5.30082 11.185 5.08349 11.185 4.81904C11.185 4.17492 10.5121 3.64862 9.68466 3.64862C8.85726 3.64862 8.18433 4.17492 8.18433 4.81904C8.18433 5.46315 8.85726 5.98945 9.68466 5.98945Z" fill="#181921"/>
<path d="M3.5636 18.3377V12.4149V12.1531V11.9462C3.5636 11.6268 3.34366 11.3676 3.07397 11.3676H0.489635C0.219943 11.3676 0 11.6268 0 11.9462V18.8221C0 19.1415 0.219943 19.4007 0.489635 19.4007H3.07397C3.34366 19.4007 3.5636 19.1415 3.5636 18.8221V18.3377Z" fill="#181921"/>
<path d="M17.2916 12.7789C17.0062 12.8574 16.6841 12.9622 16.3201 13.1009C15.9536 13.2397 15.5739 13.3863 15.1916 13.5356C13.8458 14.0566 13.2724 14.3054 12.3978 14.6536C12.1962 15.0254 11.8087 15.282 11.3557 15.282H8.45979C8.09322 15.282 7.79473 15.5805 7.79473 15.9471H7.27105C7.27105 15.2925 7.8052 14.7584 8.45979 14.7584H11.3557C11.7223 14.7584 12.0208 14.4599 12.0208 14.0933C12.0208 13.7267 11.7223 13.4282 11.3557 13.4282H8.45979C7.87328 13.4282 7.37317 13.1873 6.88877 12.9569C6.44889 12.7475 6.03518 12.5485 5.59268 12.5485H4.14734V18.3403H4.63697C5.00355 18.3403 8.20581 19.5631 9.00442 19.5631C9.44692 19.5631 11.7956 17.9502 14.6863 16.1618C17.0507 14.7008 18.9411 13.5251 19.1244 13.3942C19.6167 13.0381 19.5146 12.174 17.2863 12.7841L17.2916 12.7789Z" fill="#181921"/>
</svg>
