<svg width="17" height="26" viewBox="0 0 17 26" fill="none" xmlns="http://www.w3.org/2000/svg">
<path fill-rule="evenodd" clip-rule="evenodd" d="M8.5 1.14317e-05C8.68232 -0.00116008 8.85908 0.0877515 8.97266 0.247729L14.3027 7.75484C14.3524 7.82489 14.3875 7.90528 14.4057 7.9907L16.9857 20.1368C17.0407 20.3954 16.9337 20.6622 16.7196 20.8004L8.80949 25.9091C8.71412 25.9707 8.6068 26.0007 8.49999 26C8.39319 26.0007 8.28588 25.9707 8.19051 25.9091L0.280398 20.8004C0.0663473 20.6622 -0.0406569 20.3954 0.0142404 20.1369L2.59326 7.99075C2.61141 7.90529 2.64652 7.82487 2.69628 7.7548L8.02737 0.247683C8.14096 0.0877328 8.3177 -0.00115993 8.5 1.14317e-05ZM7.91015 2.47638L3.81708 8.24013L4.7908 11.3917L7.91015 5.71792V2.47638ZM8.5 7.11089L5.27856 12.9704L7.34333 19.6533H9.65634L11.721 12.9695L8.5 7.11089ZM12.5105 14.4057L10.8895 19.6533H15.3956L12.5105 14.4057ZM14.3317 20.8914H10.5071L9.55394 23.977L14.3317 20.8914ZM8.49995 23.3968L9.27389 20.8914H7.72586L8.49995 23.3968ZM6.1101 19.6533L4.48902 14.4065L1.60442 19.6533H6.1101ZM1.99153 16.4833L4.00127 12.8278L3.27016 10.4615L1.99153 16.4833ZM2.66833 20.8914H6.49262L7.44594 23.9769L2.66833 20.8914ZM15.0079 16.4823L12.9982 12.8269L13.729 10.4614L15.0079 16.4823ZM13.1819 8.24012L12.2087 11.3907L9.08985 5.71792V2.47667L13.1819 8.24012Z" fill="#181921"/>
</svg>
