<svg width="45" height="45" viewBox="0 0 45 45" fill="none" xmlns="http://www.w3.org/2000/svg">
<path d="M42.6464 0.391717C42.5175 0.947706 42.3948 1.50508 42.2582 2.05968C41.7778 4.00981 41.1587 5.90932 40.2381 7.70346C38.7677 10.5701 36.5306 12.6554 33.7076 14.1507C31.6681 15.2315 29.5044 15.9948 27.311 16.6901C25.6028 17.2315 23.8995 17.7903 22.2107 18.3886C19.6117 19.3092 17.4252 20.8725 15.5007 22.8226C12.6168 25.744 10.7824 29.2241 9.94083 33.2367C9.71345 34.323 9.70235 35.4093 9.85002 36.504C9.88468 36.7612 9.88537 37.0253 9.8826 37.2853C9.8819 37.3518 9.8209 37.4558 9.76474 37.4752C9.70374 37.4967 9.59559 37.4593 9.54429 37.4101C9.46873 37.3373 9.41396 37.2354 9.3689 37.1376C8.24652 34.6994 7.64547 32.158 7.73628 29.4529C7.87424 25.3474 9.34671 21.7841 11.9748 18.6645C14.1884 16.0364 16.9489 14.1861 20.1531 13.0048C22.3944 12.1784 24.6732 11.4547 26.9262 10.6616C28.5131 10.1028 30.093 9.52325 31.6632 8.92012C33.4033 8.25113 34.8973 7.16064 36.385 6.07015C38.2887 4.67463 39.9767 3.03856 41.6066 1.34009C41.9248 1.00802 42.2645 0.696748 42.5951 0.376465C42.6125 0.381318 42.6298 0.386864 42.6464 0.391717Z" fill="#FABF28"/>
<path d="M38.0792 12.8184C37.8872 14.198 37.6196 15.5152 37.1759 16.7894C36.8826 17.631 36.5915 18.4788 36.2185 19.2858C35.128 21.6491 33.2299 23.0203 30.7321 23.6124C29.6929 23.8585 28.6364 23.9285 27.5709 23.9223C25.3857 23.9098 23.2034 24.0061 21.0363 24.28C19.3565 24.4921 17.7024 24.8561 16.0934 25.4003C15.8625 25.4779 15.6157 25.5098 15.3765 25.5625C15.3585 25.5355 15.3398 25.5077 15.3218 25.4807C15.4216 25.2817 15.5117 25.0765 15.6247 24.8859C16.4296 23.5299 17.5658 22.5094 18.8671 21.6428C20.3936 20.6258 22.0706 19.9215 23.7705 19.2782C25.8079 18.508 27.8766 17.8202 29.93 17.0909C31.756 16.4427 33.5585 15.7398 35.2639 14.8101C36.1478 14.3283 36.9776 13.7703 37.7215 13.0888C37.8234 12.9966 37.9426 12.921 38.0792 12.8184Z" fill="#FABF28"/>
<path d="M11.9165 31.3122C11.9837 31.0384 12.0226 30.7542 12.1224 30.4935C12.7637 28.8207 13.9976 27.7371 15.5977 27.0148C17.1838 26.2979 18.8463 25.8799 20.5662 25.6345C23.2567 25.2497 25.9611 25.0702 28.6745 24.9766C29.8031 24.9378 30.9311 24.8768 32.0597 24.8275C32.1602 24.8227 32.2607 24.8269 32.3841 24.8269C32.3585 24.8976 32.346 24.953 32.3196 25.0009C30.9713 27.3614 29.1016 29.134 26.5414 30.1289C25.3268 30.601 24.0637 30.6897 22.7853 30.5642C21.5368 30.4422 20.2959 30.2453 19.0473 30.1226C16.9946 29.9209 14.9731 30.0283 13.043 30.8568C12.8656 30.933 12.6916 31.019 12.5176 31.1029C12.3456 31.1861 12.1758 31.2741 12.0052 31.3601C11.9747 31.3441 11.9463 31.3282 11.9165 31.3122Z" fill="#FABF28"/>
<path d="M26.7035 31.8801C25.5839 34.0603 23.9977 35.5404 21.5845 36.016C20.3443 36.26 19.1435 36.1214 17.9331 35.8441C16.7276 35.5682 15.5171 35.3082 14.2998 35.0954C13.2509 34.9117 12.2006 34.9394 11.1905 35.3491C11.0907 35.3893 10.9805 35.4053 10.8079 35.4503C10.8578 35.302 10.8779 35.191 10.9292 35.0981C11.8214 33.5002 13.1462 32.5102 14.9715 32.2149C16.3074 31.9986 17.6191 32.1664 18.9397 32.3792C20.6472 32.6551 22.3699 32.7896 24.1024 32.6676C24.8608 32.6142 25.5541 32.3182 26.2494 32.0374C26.3783 31.9847 26.5135 31.9445 26.7035 31.8801Z" fill="#FABF28"/>
<path d="M22.2472 -6.10352e-05C9.96066 -6.10352e-05 0 9.9606 0 22.2471C0 34.5337 9.96066 44.4943 22.2472 44.4943C34.5337 44.4943 44.4944 34.5337 44.4944 22.2471C44.4944 9.9606 34.5337 -6.10352e-05 22.2472 -6.10352e-05ZM22.2472 41.0336C11.8713 41.0336 3.46072 32.6224 3.46072 22.2471C3.46072 11.8719 11.872 3.46066 22.2472 3.46066C32.6224 3.46066 41.0337 11.8712 41.0337 22.2471C41.0337 32.6231 32.6224 41.0336 22.2472 41.0336Z" fill="#FABF28"/>
</svg>
