<svg width="40" height="40" viewBox="0 0 40 40" fill="none" xmlns="http://www.w3.org/2000/svg">
<path d="M38.3387 0.35209C38.2228 0.851919 38.1125 1.35299 37.9897 1.85158C37.5578 3.60472 37.0013 5.31236 36.1736 6.92527C34.8518 9.50232 32.8406 11.377 30.3028 12.7213C28.4693 13.6929 26.5242 14.3791 24.5523 15.0042C23.0167 15.4909 21.4854 15.9932 19.9672 16.5311C17.6308 17.3587 15.6651 18.7641 13.935 20.5172C11.3424 23.1435 9.69332 26.2721 8.93673 29.8794C8.73231 30.856 8.72234 31.8326 8.85508 32.8166C8.88624 33.0479 8.88687 33.2853 8.88437 33.519C8.88375 33.5789 8.82891 33.6723 8.77842 33.6898C8.72358 33.7091 8.62636 33.6755 8.58024 33.6312C8.51231 33.5658 8.46307 33.4742 8.42256 33.3863C7.41356 31.1944 6.87322 28.9096 6.95486 26.4778C7.07888 22.787 8.40262 19.5837 10.7653 16.7791C12.7552 14.4165 15.2369 12.7531 18.1175 11.6911C20.1324 10.9482 22.1809 10.2976 24.2064 9.58459C25.633 9.08226 27.0533 8.56124 28.4649 8.01904C30.0292 7.41762 31.3723 6.43728 32.7097 5.45695C34.4211 4.20239 35.9387 2.73157 37.4039 1.20467C37.69 0.906139 37.9953 0.62631 38.2926 0.338379C38.3082 0.342742 38.3238 0.347727 38.3387 0.35209Z" fill="#FABF28"/>
<path d="M34.2326 11.5237C34.06 12.7639 33.8194 13.948 33.4206 15.0935C33.1569 15.8501 32.8952 16.6123 32.5599 17.3378C31.5795 19.4624 29.8731 20.6951 27.6277 21.2273C26.6934 21.4486 25.7436 21.5115 24.7857 21.5059C22.8213 21.4947 20.8594 21.5813 18.9112 21.8275C17.4011 22.0182 15.9141 22.3454 14.4676 22.8346C14.26 22.9044 14.0382 22.9331 13.8232 22.9805C13.807 22.9562 13.7901 22.9312 13.7739 22.9069C13.8637 22.7281 13.9447 22.5436 14.0463 22.3722C14.7698 21.1532 15.7913 20.2358 16.9611 19.4567C18.3335 18.5425 19.841 17.9093 21.3692 17.3309C23.2009 16.6385 25.0606 16.0203 26.9066 15.3646C28.5482 14.7819 30.1686 14.15 31.7017 13.3142C32.4963 12.8811 33.2423 12.3794 33.911 11.7667C34.0027 11.6839 34.1098 11.6159 34.2326 11.5237Z" fill="#FABF28"/>
<path d="M10.7129 28.1492C10.7733 27.903 10.8082 27.6475 10.898 27.4131C11.4745 25.9093 12.5838 24.9352 14.0222 24.2858C15.4482 23.6414 16.9427 23.2656 18.4889 23.0449C20.9076 22.699 23.3389 22.5376 25.7782 22.4535C26.7928 22.4186 27.8068 22.3637 28.8214 22.3195C28.9118 22.3151 29.0021 22.3189 29.1131 22.3189C29.09 22.3824 29.0788 22.4323 29.0551 22.4753C27.8429 24.5974 26.1621 26.191 23.8605 27.0853C22.7686 27.5097 21.6331 27.5895 20.4839 27.4767C19.3614 27.367 18.2458 27.19 17.1234 27.0797C15.278 26.8984 13.4607 26.995 11.7256 27.7397C11.5661 27.8083 11.4097 27.8855 11.2532 27.961C11.0987 28.0357 10.946 28.1149 10.7927 28.1922C10.7652 28.1778 10.7397 28.1635 10.7129 28.1492Z" fill="#FABF28"/>
<path d="M24.0063 28.6597C22.9998 30.6197 21.5738 31.9503 19.4044 32.3778C18.2894 32.5972 17.21 32.4726 16.1218 32.2233C15.0381 31.9752 13.9499 31.7415 12.8555 31.5502C11.9126 31.385 10.9684 31.41 10.0603 31.7783C9.97059 31.8144 9.87149 31.8288 9.71631 31.8693C9.76118 31.7359 9.77925 31.6362 9.82537 31.5527C10.6275 30.1162 11.8185 29.2262 13.4594 28.9607C14.6604 28.7662 15.8395 28.9171 17.0268 29.1084C18.5618 29.3564 20.1105 29.4773 21.6679 29.3677C22.3498 29.3197 22.973 29.0535 23.5981 28.8011C23.714 28.7538 23.8355 28.7176 24.0063 28.6597Z" fill="#FABF28"/>
<path d="M20 0C8.95454 0 0 8.95453 0 20C0 31.0455 8.95454 40 20 40C31.0455 40 40 31.0455 40 20C40 8.95453 31.0455 0 20 0ZM20 36.8889C10.6722 36.8889 3.11115 29.3272 3.11115 20C3.11115 10.6728 10.6728 3.11115 20 3.11115C29.3272 3.11115 36.8889 10.6721 36.8889 20C36.8889 29.3278 29.3272 36.8889 20 36.8889Z" fill="#FABF28"/>
</svg>
