<svg width="53" height="53" viewBox="0 0 53 53" fill="none" xmlns="http://www.w3.org/2000/svg">
<circle cx="26.5" cy="26.5" r="26.5" fill="#181921"/>
<path d="M26.5719 25.3966C30.9786 25.3966 34.551 21.7929 34.551 17.3475C34.551 12.9021 30.9786 9.29834 26.5719 9.29834C22.1651 9.29834 18.5928 12.9021 18.5928 17.3475C18.5928 21.7929 22.1651 25.3966 26.5719 25.3966Z" fill="white"/>
<path d="M39.2089 43.7016C39.7206 43.7054 40.2258 43.5859 40.6826 43.3532C41.1394 43.1205 41.5345 42.7813 41.8353 42.3636C42.136 41.946 42.3337 41.462 42.4119 40.9519C42.49 40.4417 42.4464 39.9201 42.2847 39.4304C41.2121 36.0774 39.1132 33.1539 36.2897 31.0801C33.4662 29.0064 30.0636 27.8892 26.571 27.8892C23.0784 27.8892 19.6758 29.0064 16.8523 31.0801C14.0288 33.1539 11.9299 36.0774 10.8573 39.4304C10.6956 39.9201 10.652 40.4417 10.7301 40.9519C10.8083 41.462 11.006 41.946 11.3067 42.3636C11.6075 42.7813 12.0026 43.1205 12.4594 43.3532C12.9162 43.5859 13.4214 43.7054 13.9331 43.7016H39.2089Z" fill="white"/>
</svg>
