<svg width="21" height="26" viewBox="0 0 21 26" fill="none" xmlns="http://www.w3.org/2000/svg">
<path d="M20.4765 11.913C20.7776 11.3456 20.9287 10.7398 20.9846 10.1114C21.0545 9.32092 20.8886 8.58097 20.4355 7.90551C20.0224 7.28931 19.4509 6.8239 18.8038 6.43344C18.003 5.94972 17.1331 5.60284 16.2371 5.30999C16.1457 5.28036 16.1093 5.25509 16.1373 5.15137C16.4534 3.98609 16.7601 2.8182 17.0743 1.65205C17.0967 1.56925 17.0725 1.55269 16.9941 1.53439C16.2623 1.36617 15.5304 1.19622 14.7994 1.02278C14.7155 1.00273 14.6791 1.00796 14.6549 1.10035C14.3565 2.23512 14.0507 3.36902 13.7505 4.5038C13.73 4.58311 13.7029 4.60316 13.6162 4.58311C13.0466 4.45412 12.476 4.32861 11.9054 4.20747C11.8112 4.18742 11.7926 4.15866 11.8159 4.07063C12.1235 2.93063 12.4256 1.78888 12.7333 0.648879C12.7547 0.569566 12.7417 0.541676 12.6531 0.521631C11.9175 0.353419 11.1828 0.182593 10.4481 0.00828037C10.3661 -0.010894 10.3409 -0.000435464 10.3204 0.0788767C10.0099 1.25287 9.69476 2.42512 9.38336 3.59912C9.36564 3.66623 9.34886 3.69063 9.26402 3.67146C8.74376 3.55205 8.22165 3.44224 7.70326 3.31586C6.67021 3.06398 5.63157 2.82953 4.59573 2.58549C4.51928 2.56719 4.48571 2.57852 4.4652 2.65696C4.27127 3.4004 4.07361 4.1421 3.87409 4.8838C3.85637 4.9483 3.8601 4.97619 3.94122 4.99362C4.35891 5.08252 4.77661 5.1749 5.19243 5.27165C5.5141 5.3466 5.83949 5.41632 6.13038 5.57582C6.60308 5.83555 6.82405 6.3367 6.69166 6.83349C6.31499 8.24106 5.93925 9.64863 5.56351 11.0571C5.05445 12.9658 4.54538 14.8745 4.03632 16.7832C3.94588 17.1205 3.64753 17.3698 3.28298 17.409C3.12354 17.4265 2.96784 17.3951 2.81587 17.3602C2.29934 17.2417 1.78282 17.1188 1.26816 16.9924C1.18705 16.9724 1.15162 16.9837 1.11712 17.0578C0.752573 17.8526 0.383361 18.6458 0.0150822 19.4398C-0.019104 19.5136 0.00482605 19.56 0.086873 19.5792C1.62992 19.9374 3.17389 20.2939 4.71321 20.6661C4.80831 20.6887 4.81763 20.7218 4.79525 20.8029C4.47825 21.9821 4.16592 23.1622 3.84985 24.3414C3.8284 24.4199 3.84052 24.4486 3.93096 24.4695C4.66006 24.636 5.3873 24.806 6.11453 24.9803C6.21429 25.0038 6.24413 24.982 6.26837 24.8914C6.57418 23.727 6.88559 22.5634 7.19419 21.3999C7.21377 21.3258 7.23522 21.2979 7.32939 21.3215C7.89159 21.4635 8.45567 21.5995 9.02067 21.7311C9.12323 21.7546 9.14561 21.7843 9.11857 21.8828C8.80437 23.0419 8.49576 24.2029 8.18342 25.362C8.16291 25.4396 8.18529 25.4631 8.2636 25.4814C8.9927 25.6479 9.72087 25.8161 10.4481 25.9904C10.5581 26.0166 10.5842 25.9904 10.6094 25.8963C10.9171 24.7293 11.2313 23.5631 11.539 22.3952C11.5641 22.2985 11.5986 22.2767 11.7012 22.295C12.4816 22.4362 13.2675 22.539 14.061 22.58C14.8386 22.6201 15.6133 22.6018 16.3788 22.4528C17.616 22.2113 18.6276 21.6387 19.3344 20.646C20.0196 19.6829 20.3982 18.6153 20.4774 17.4613C20.525 16.7763 20.3767 16.1235 20.0075 15.523C19.6532 14.9477 19.1469 14.5102 18.5633 14.145C18.347 14.0099 18.1214 13.8905 17.8883 13.7703C17.9424 13.7363 17.9974 13.7328 18.0486 13.7197C19.1367 13.4443 19.9711 12.8682 20.4793 11.9121L20.4765 11.913ZM13.9444 19.1408C13.4531 19.2925 12.9449 19.3334 12.49 19.3334C11.6518 19.3265 10.8854 19.2193 10.1246 19.072C9.44209 18.9395 8.76987 18.7687 8.09485 18.6074C8.01839 18.5891 8.01 18.5638 8.02772 18.4993C8.4566 16.8992 8.88455 15.299 9.31157 13.6979C9.32276 13.6552 9.32182 13.616 9.39641 13.6325C10.3978 13.8513 11.4066 14.0457 12.3799 14.3629C13.1184 14.6035 13.8344 14.8876 14.4591 15.3382C14.8917 15.6502 15.2432 16.0232 15.4129 16.5209C15.7877 17.6199 15.1406 18.773 13.9435 19.1417L13.9444 19.1408ZM14.5719 11.8537C14.1831 11.94 13.7878 11.9635 13.3897 11.9548C12.7398 11.9374 12.1021 11.8397 11.47 11.709C10.9851 11.6088 10.5068 11.4841 10.0257 11.37C9.95582 11.3534 9.9409 11.329 9.95862 11.2619C10.3465 9.81772 10.7325 8.37266 11.1166 6.92674C11.1315 6.87271 11.1464 6.84307 11.2145 6.85789C12.0834 7.04789 12.9608 7.21174 13.8008 7.50285C14.3631 7.69808 14.9038 7.93078 15.3747 8.28464C15.784 8.59143 16.0963 8.96358 16.2082 9.45427C16.4646 10.5725 15.77 11.5879 14.5728 11.8537H14.5719Z" fill="#181921"/>
</svg>
